<svg width="50" height="74" viewBox="0 0 50 74" fill="none" xmlns="http://www.w3.org/2000/svg">
<path d="M26.6945 1.3568C29.7201 14.2423 33.8594 19.3276 38.374 24.8703C41.2924 28.4585 44.3657 32.2309 47.4211 38.2192C48.2013 39.7519 48.8446 41.3381 49.2912 43.0074C49.7439 44.6946 50 46.4471 50 48.2769C50 51.6512 49.3806 54.8058 48.1477 57.7346C46.9148 60.6515 45.0744 63.3189 42.6266 65.7308C40.1727 68.1368 37.4747 69.9547 34.5265 71.1726C31.5724 72.3904 28.3919 73.0023 24.9911 73.0023C21.5902 73.0023 18.4157 72.3904 15.4675 71.1726C12.5313 69.9606 9.83919 68.1428 7.38535 65.7308C4.93746 63.3189 3.09113 60.6515 1.85825 57.7346C0.619416 54.8058 0 51.6512 0 48.2769C0 46.5481 0.226325 44.8907 0.631328 43.2926C1.03038 41.7242 1.6081 40.2153 2.32281 38.742C5.31269 32.5755 8.45146 28.7377 11.4711 25.0366C16.0036 19.488 20.2799 14.2601 23.2579 1.36274C23.4723 0.418161 24.4193 -0.169974 25.3663 0.043893C26.0512 0.204293 26.5456 0.72708 26.6945 1.3568ZM12.2216 42.1282C13.4723 42.0153 14.5742 42.9361 14.6814 44.1778C14.9672 47.1838 15.6284 49.9522 16.8851 52.3404C18.1001 54.6454 19.9107 56.6355 22.5313 58.1623C23.6093 58.792 23.9726 60.1822 23.3413 61.2574C22.7099 62.3327 21.3163 62.6951 20.2442 62.0654C16.8314 60.0752 14.4729 57.4851 12.8708 54.4493C11.2627 51.3958 10.4943 47.9977 10.1668 44.5877C10.0536 43.3461 10.9827 42.2411 12.2216 42.1282ZM35.6462 27.0862C31.6677 22.197 27.9631 17.6523 24.9851 8.40848C21.9952 17.7117 18.1954 22.3692 14.2049 27.2526C11.3103 30.7932 8.30852 34.4646 5.49732 40.2687C4.88982 41.5163 4.39547 42.8114 4.05599 44.1599C3.72245 45.4788 3.53186 46.8452 3.53186 48.2769C3.53186 51.1997 4.05599 53.8968 5.09827 56.3741C6.14652 58.8574 7.73675 61.1446 9.8511 63.2298C11.9774 65.3209 14.3002 66.8893 16.8195 67.9289C19.327 68.9626 22.0488 69.4854 24.9911 69.4854C27.9452 69.4854 30.679 68.9626 33.1924 67.9289C35.7058 66.8893 38.0345 65.3209 40.1608 63.2298C42.2752 61.1446 43.8594 58.8574 44.9077 56.3741C45.95 53.9028 46.4741 51.2057 46.4741 48.2769C46.4741 46.7501 46.2656 45.3065 45.8904 43.9164C45.5092 42.5084 44.9613 41.148 44.2823 39.8172C41.3758 34.126 38.4395 30.52 35.6462 27.0862Z" fill="black"/>
</svg>
