<svg width="74" height="55" viewBox="0 0 74 55" fill="none" xmlns="http://www.w3.org/2000/svg">
<path d="M57.2618 12.8888L57.2271 12.8426C57.0477 12.5828 56.689 12.5251 56.4344 12.7041L52.0372 15.776C51.7769 15.955 51.719 16.313 51.8984 16.5671L51.9331 16.6132C52.1124 16.8731 52.4711 16.9308 52.7257 16.7518L57.1229 13.6799C57.3775 13.5009 57.4411 13.1429 57.2618 12.8888ZM68.8565 30.2117L66.4727 41.3098C65.8826 44.0699 64.5461 46.1776 62.6483 47.6211C61.335 48.6201 59.767 49.2841 58.0023 49.6132L59.5645 52.9508C59.9001 53.6726 59.5876 54.5329 58.8644 54.8678C58.1412 55.2028 57.2791 54.8909 56.9436 54.1692L54.9185 49.85H20.3081L18.283 54.1692C17.9475 54.8909 17.0854 55.2028 16.3622 54.8678C15.6389 54.5329 15.3265 53.6726 15.6621 52.9508L17.1375 49.798C14.881 49.6017 13.0296 48.8799 11.5368 47.6442C9.79531 46.2007 8.60344 44.1046 7.89179 41.3734L4.95841 30.2117H2.66724C1.93823 30.2117 1.27287 29.9114 0.786865 29.4321V29.4264L0.781079 29.4321C0.30086 28.9471 0 28.2831 0 27.5497V25.1303C0 24.397 0.30086 23.7329 0.781079 23.2479C0.815794 23.2132 0.856294 23.1728 0.896794 23.144C1.36544 22.7224 1.98452 22.4684 2.66145 22.4684H3.01439C3.11274 21.4174 3.51775 20.4243 4.14261 19.5581C4.77905 18.6689 5.65848 17.9125 6.65942 17.3928C7.66615 16.8673 8.80594 16.5728 9.95731 16.6075C10.9698 16.6421 11.9765 16.9193 12.9081 17.5083C13.3131 16.9193 13.8164 16.3938 14.395 15.9608C15.529 15.1119 16.9465 14.6038 18.4798 14.6038C19.7526 14.6038 20.9445 14.9503 21.957 15.5508C22.7496 16.0185 23.4324 16.6479 23.9647 17.387C25.5789 17.514 27.0369 18.2012 28.1304 19.2521C29.0272 20.1182 29.6752 21.2269 29.9587 22.4626H68.868V8.14238C68.0233 4.00222 65.628 2.87624 62.4285 3.33241C63.8691 5.83844 63.684 8.3849 61.6416 10.9833C61.902 11.4048 61.8788 11.8668 61.5953 12.3576L60.9589 13.0909C60.7043 13.3508 60.3861 13.3739 59.9753 13.0447L50.1973 3.18805C49.9312 2.87047 49.9833 2.5933 50.2957 2.35078C50.99 1.50196 51.0768 1.3576 52.3092 1.56548C55.0516 -0.213 57.661 -0.530585 60.1199 0.878339C66.2934 -1.6508 71.5468 1.52506 72.2585 7.99225V22.6358C72.623 22.7686 72.947 22.9823 73.2131 23.2479C73.6934 23.7272 73.9942 24.397 73.9942 25.1303V27.5497C73.9942 28.2831 73.6934 28.9471 73.2131 29.4321C72.7329 29.9114 72.0618 30.2117 71.3328 30.2117H68.8565ZM51.7248 8.14238L51.6901 8.09619C51.5107 7.83635 51.152 7.7786 50.8974 7.9576L46.5002 11.0295C46.2399 11.2085 46.182 11.5665 46.3614 11.8206L46.3961 11.8668C46.5755 12.1266 46.9342 12.1844 47.1887 12.0054L51.5859 8.93346C51.8463 8.75446 51.9041 8.39645 51.7248 8.14238ZM49.1964 5.6017L49.1617 5.5555C48.9823 5.29566 48.6236 5.23792 48.369 5.41692L43.9719 8.48884C43.7115 8.66784 43.6536 9.02585 43.833 9.27991L43.8677 9.32611C44.0471 9.58595 44.4058 9.64369 44.6604 9.46469L49.0575 6.39278C49.3121 6.21377 49.3758 5.85577 49.1964 5.6017ZM54.2474 10.5964L54.2127 10.5503C54.0333 10.2904 53.6746 10.2327 53.42 10.4117L49.0228 13.4836C48.7625 13.6626 48.7046 14.0206 48.884 14.2747L48.9187 14.3209C49.098 14.5807 49.4568 14.6384 49.7113 14.4594L54.1143 11.3875C54.3631 11.2085 54.4267 10.8563 54.2474 10.5964ZM5.95356 22.4684H26.927C26.7418 22.0411 26.4699 21.66 26.1343 21.3424C25.4458 20.6783 24.4912 20.2684 23.4324 20.2684C23.2704 20.2684 23.4439 20.2626 23.334 20.2626L23.2357 20.2684C22.6918 20.2915 22.1537 20.0085 21.8876 19.4946C21.5751 18.8999 21.0891 18.3975 20.4932 18.0453C19.9146 17.7046 19.2261 17.5025 18.4913 17.5025C17.6003 17.5025 16.7845 17.7912 16.1423 18.2705C15.5001 18.7555 15.0199 19.4311 14.8116 20.2048C14.7421 20.4993 14.5744 20.7765 14.3198 20.9844C13.7007 21.4867 12.7866 21.3944 12.2832 20.7765C11.5715 19.9046 10.7152 19.5235 9.87631 19.4946C9.23987 19.4715 8.59187 19.6447 8.00751 19.9508C7.41736 20.2626 6.89664 20.713 6.50899 21.2442C6.23706 21.6253 6.04034 22.0411 5.95356 22.4684ZM4.9179 25.3671C4.68647 25.4248 4.45504 25.419 4.23518 25.3671H2.90446V27.3072H71.0955V25.3671H4.9179ZM7.94965 30.2117L10.6921 40.6458C11.2475 42.7707 12.127 44.3702 13.3883 45.4096C14.6206 46.4316 16.2812 46.9513 18.4393 46.9513H55.3235C57.5568 46.9513 59.4604 46.4027 60.8837 45.323C62.2375 44.2951 63.1922 42.7534 63.6319 40.7093L65.8884 30.2117H7.94965Z" fill="black"/>
</svg>
