<svg width="54" height="67" viewBox="0 0 54 67" fill="none" xmlns="http://www.w3.org/2000/svg">
<path d="M44.0117 7.94286C45.0544 7.94286 45.8992 8.78746 45.8992 9.82984C45.8992 10.8722 45.0544 11.7168 44.0117 11.7168C42.969 11.7168 42.1242 10.8722 42.1242 9.82984C42.1242 8.78746 42.969 7.94286 44.0117 7.94286ZM35.4993 48.8311C35.9805 47.7406 36.2692 46.2545 36.2586 44.6188C36.2425 41.2724 34.9753 38.5622 33.4353 38.5676C31.8954 38.5729 30.6549 41.2938 30.6763 44.6401C30.687 46.2759 30.9918 47.762 31.4837 48.8525C32.8311 51.3168 34.1679 51.0548 35.4993 48.8311ZM16.6137 55.7161C16.6404 55.775 16.6671 55.8338 16.6832 55.8979H20.5758C20.1053 54.7005 19.7203 53.3588 19.4315 51.9155C19.0733 50.114 18.8754 48.1361 18.8647 46.0674V46.0193C18.8487 41.8123 19.6294 37.9849 20.902 35.1945C21.1533 34.6493 21.4206 34.1415 21.7094 33.6711C21.4955 33.4893 21.2762 33.3396 21.0517 33.2274C20.7469 33.0723 20.4368 32.9815 20.132 32.9708L20.0518 32.9761V32.9708H20.0464C18.7311 32.9761 17.4692 34.3072 16.4907 36.4454C15.3838 38.8776 14.7048 42.2614 14.7208 46.014V46.0514C14.7315 47.933 14.9133 49.7238 15.2341 51.3488C15.5603 53.0006 16.0362 54.4867 16.6137 55.7161ZM13.8974 55.8979C13.4322 54.7112 13.0472 53.3748 12.7585 51.9315C12.4002 50.1247 12.197 48.1468 12.1863 46.0674V46.0193C12.1703 41.8123 12.951 37.9849 14.2235 35.1945C15.6245 32.1155 17.667 30.2018 20.0144 30.1911V30.1857H20.0197C20.0678 30.1857 20.1159 30.1857 20.1587 30.1911C20.8378 30.2071 21.4901 30.3835 22.105 30.6989C22.5488 30.9234 22.9766 31.2228 23.3883 31.5916C24.3829 30.6989 25.495 30.1964 26.6928 30.1911V30.1857H26.6981C26.7462 30.1857 26.7944 30.1857 26.8371 30.1911C27.5215 30.2125 28.1846 30.3889 28.8102 30.715C29.2486 30.9395 29.6657 31.2335 30.0667 31.5916C31.0613 30.6989 32.1734 30.1964 33.3712 30.1911V30.1857H33.3765C33.4246 30.1857 33.4728 30.1857 33.5209 30.1911C35.8254 30.2552 37.8413 32.1422 39.2475 35.1678C40.5469 37.9582 41.3649 41.791 41.3863 46.0033C41.397 48.0239 41.2259 49.9483 40.9104 51.6963C40.6324 53.2305 40.2421 54.647 39.7608 55.9032H44.0171C44.2737 55.9032 44.5143 55.7963 44.6854 55.6253C44.8565 55.4542 44.9635 55.219 44.9635 54.9571V26.8715C44.9635 26.6149 44.8565 26.3797 44.6854 26.2086C44.5143 26.0376 44.2791 25.9307 44.0224 25.9307H10.1652C9.90851 25.9307 9.67324 26.0376 9.50214 26.2086C9.33104 26.3797 9.2241 26.6149 9.2241 26.8715V54.9517C9.2241 55.2083 9.33104 55.4435 9.50214 55.6146C9.67324 55.7856 9.90851 55.8926 10.1652 55.8926H13.8974V55.8979ZM23.2814 55.6948C23.3135 55.7589 23.3402 55.8284 23.3616 55.8979H27.2595C26.7676 54.6577 26.3719 53.2572 26.0832 51.7551C25.7463 50.0071 25.5592 48.088 25.5485 46.0674V46.0193C25.5325 41.8123 26.3131 37.9849 27.5857 35.1945C27.8317 34.6493 28.1044 34.1415 28.3931 33.6711C28.1792 33.4893 27.9653 33.345 27.7461 33.2327C27.436 33.0723 27.1259 32.9815 26.8157 32.9708L26.7355 32.9761V32.9708H26.7302C25.4148 32.9761 24.1529 34.3072 23.1744 36.4454C22.0676 38.8776 21.3885 42.2614 21.4046 46.014V46.0514C21.4153 47.9277 21.5971 49.7131 21.9179 51.3328C22.2334 52.9899 22.7092 54.4706 23.2814 55.6948ZM29.8689 55.4863C29.9277 55.6199 29.9651 55.7589 29.9865 55.8979H37.0499C37.066 55.7482 37.1034 55.5985 37.1675 55.4542C37.7022 54.2301 38.1354 52.7707 38.4294 51.1457C38.7182 49.5527 38.8732 47.8208 38.8625 46.0193C38.8412 42.2507 38.13 38.8563 36.9964 36.424C36.0179 34.3286 34.7774 33.0189 33.4888 32.9708L33.4086 32.9761V32.9708H33.4033C32.0879 32.9761 30.826 34.3072 29.8475 36.4454C28.7407 38.8776 28.0616 42.2614 28.0776 46.014V46.0514C28.0883 47.8635 28.2594 49.6008 28.5642 51.1938C28.8743 52.8189 29.3235 54.2728 29.8689 55.4863ZM10.1652 23.3167H44.0224C45.0009 23.3167 45.8885 23.7176 46.5302 24.3591C47.1718 25.0005 47.5728 25.8933 47.5728 26.8715V54.9517C47.5728 55.9246 47.1718 56.812 46.5302 57.4535L46.5248 57.4641C45.8832 58.1056 44.9956 58.5065 44.0224 58.5065H10.1652C9.18667 58.5065 8.29906 58.1056 7.65208 57.4641C7.01044 56.8227 6.60941 55.9353 6.60941 54.9571V26.8715C6.60941 25.8933 7.01044 25.0059 7.65208 24.3591C8.29372 23.7176 9.18667 23.3167 10.1652 23.3167ZM8.79099 7.94286C9.83366 7.94286 10.6785 8.78746 10.6785 9.82984C10.6785 10.8722 9.83366 11.7168 8.79099 11.7168C7.74832 11.7168 6.9035 10.8722 6.9035 9.82984C6.9035 8.78746 7.74832 7.94286 8.79099 7.94286ZM16.9612 7.75042H37.221V11.9093H16.9612V7.75042ZM2.48687 16.5171H51.5189V4.04595C51.5189 3.79471 51.4173 3.57019 51.2516 3.40448C51.0858 3.23877 50.8612 3.1372 50.6099 3.1372H3.39586C3.14455 3.1372 2.91998 3.23877 2.75422 3.40448C2.58846 3.57019 2.48687 3.79471 2.48687 4.04595V16.5171ZM53.9946 62.954C53.9946 63.8842 53.6149 64.7341 53 65.3489C52.3851 65.9636 51.5349 66.3431 50.6046 66.3431H3.39586C2.46548 66.3431 1.61531 65.9636 1.0004 65.3489C0.385497 64.7288 0.00585938 63.8842 0.00585938 62.9487V4.04595C0.00585938 3.11582 0.385497 2.26587 1.0004 1.65113C1.61531 1.0364 2.46013 0.65686 3.39586 0.65686H50.6099C51.5403 0.65686 52.3905 1.0364 53.0054 1.65113C53.6203 2.26587 53.9999 3.11582 53.9999 4.04595C53.9946 24.6424 53.9946 42.2934 53.9946 62.954ZM51.5189 18.9975H2.48687V62.9487C2.48687 63.1999 2.58846 63.4245 2.75422 63.5902C2.91998 63.7559 3.14455 63.8574 3.39586 63.8574H50.6099C50.8612 63.8574 51.0858 63.7559 51.2516 63.5902C51.4173 63.4245 51.5189 63.1999 51.5189 62.9487V18.9975Z" fill="black"/>
</svg>
