<svg width="50" height="73" viewBox="0 0 50 73" fill="none" xmlns="http://www.w3.org/2000/svg">
<path d="M26.6945 1.35387C29.7201 14.2394 33.8594 19.3247 38.374 24.8674C41.2924 28.4556 44.3657 32.228 47.4211 38.2163C48.2013 39.749 48.8446 41.3352 49.2912 43.0045C49.7439 44.6917 50 46.4442 50 48.274C50 51.6483 49.3806 54.8028 48.1477 57.7316C46.9148 60.6485 45.0744 63.3159 42.6266 65.7279C40.1727 68.1339 37.4747 69.9518 34.5265 71.1696C31.5724 72.3875 28.3919 72.9994 24.9911 72.9994C21.5902 72.9994 18.4157 72.3875 15.4675 71.1696C12.5313 69.9577 9.83919 68.1398 7.38535 65.7279C4.93746 63.3159 3.09113 60.6485 1.85825 57.7316C0.619416 54.8028 0 51.6483 0 48.274C0 46.5452 0.226325 44.8877 0.631328 43.2897C1.03038 41.7213 1.6081 40.2123 2.32281 38.739C5.31269 32.5725 8.45146 28.7348 11.4711 25.0337C16.0036 19.4851 20.2799 14.2572 23.2579 1.35981C23.4723 0.415231 24.4193 -0.172904 25.3663 0.0409633C26.0512 0.201364 26.5456 0.72415 26.6945 1.35387ZM12.2216 42.1253C13.4723 42.0124 14.5742 42.9332 14.6814 44.1748C14.9672 47.1809 15.6284 49.9492 16.8851 52.3374C18.1001 54.6424 19.9107 56.6326 22.5313 58.1594C23.6093 58.7891 23.9726 60.1792 23.3413 61.2545C22.7099 62.3298 21.3163 62.6922 20.2442 62.0624C16.8314 60.0723 14.4729 57.4821 12.8708 54.4464C11.2627 51.3928 10.4943 47.9947 10.1668 44.5847C10.0536 43.3431 10.9827 42.2381 12.2216 42.1253ZM35.6462 27.0833C31.6677 22.194 27.9631 17.6494 24.9851 8.40555C21.9952 17.7088 18.1954 22.3663 14.2049 27.2496C11.3103 30.7903 8.30852 34.4617 5.49732 40.2658C4.88982 41.5134 4.39547 42.8085 4.05599 44.157C3.72245 45.4759 3.53186 46.8422 3.53186 48.274C3.53186 51.1968 4.05599 53.8939 5.09827 56.3712C6.14652 58.8544 7.73675 61.1416 9.8511 63.2268C11.9774 65.318 14.3002 66.8863 16.8195 67.926C19.327 68.9597 22.0488 69.4824 24.9911 69.4824C27.9452 69.4824 30.679 68.9597 33.1924 67.926C35.7058 66.8863 38.0345 65.318 40.1608 63.2268C42.2752 61.1416 43.8594 58.8544 44.9077 56.3712C45.95 53.8998 46.4741 51.2027 46.4741 48.274C46.4741 46.7472 46.2656 45.3036 45.8904 43.9134C45.5092 42.5055 44.9613 41.145 44.2823 39.8143C41.3758 34.1231 38.4395 30.517 35.6462 27.0833Z" fill="black"/>
</svg>
