<svg width="74" height="51" viewBox="0 0 74 51" fill="none" xmlns="http://www.w3.org/2000/svg">
<path d="M51.5145 42.1873L40.1453 34.2498L40.2027 34.168L51.5718 42.1055L51.5145 42.1873ZM7.32281 20.8116L7.29232 20.9605V21.1125V49.4938H1.5V20.8114C2.39852 12.8527 6.05431 7.09684 11.1956 4.05534C16.3536 1.00393 23.2547 0.538132 30.9085 3.67735L31.5877 3.95591L32.2243 3.59052C37.9825 0.285909 44.1429 0.925107 50.9191 5.32642L51.4094 5.64487L51.9859 5.54755C53.6437 5.26765 54.0593 5.33733 54.2709 5.43101C54.3654 5.47286 54.506 5.56055 54.7595 5.82388C55.0104 6.08442 55.2891 6.42619 55.7044 6.93544C55.7358 6.97401 55.7681 7.01355 55.8011 7.05408L55.9077 7.18468L56.0406 7.28838C56.0476 7.29383 56.0543 7.29917 56.0607 7.30438L30.8566 32.7082C30.635 32.8784 30.4976 32.9364 30.4359 32.9559C30.427 32.9487 30.4163 32.9396 30.4039 32.928L28.8838 31.1794C28.4273 30.3454 28.491 29.7844 28.8059 29.2709L29.3517 28.3809L28.7067 27.56C26.193 24.3607 24.8948 21.2898 24.6122 18.3344C24.3304 15.3882 25.0444 12.4213 26.7857 9.39635L27.8894 7.47894L25.6996 7.16336C21.3491 6.53637 17.3 6.95265 14.0144 9.16189C10.7171 11.379 8.4696 15.2116 7.32281 20.8116ZM54.5474 21.8658L65.9166 29.8092L65.8592 29.891L54.492 21.9448L54.5474 21.8658ZM54.4758 21.9679L54.4759 21.9677C54.4759 21.9677 54.4758 21.9678 54.4757 21.9679L54.4601 21.9569L54.4758 21.9679ZM72.4293 23.3042L61.0602 15.3607L61.1175 15.2789L72.4867 23.2224L72.4293 23.3042ZM47.962 28.3181L48.0194 28.2363L59.3926 36.1825L59.3372 36.2615L47.962 28.3181Z" stroke="black" stroke-width="3"/>
</svg>
