<svg width="87" height="70" viewBox="0 0 87 70" fill="none" xmlns="http://www.w3.org/2000/svg">
<path d="M25.9282 3.81678L2.2878 13.16L5.29683 26.9089H17.8498C18.4375 26.9089 18.9118 27.3842 18.9118 27.9731V67.8788H67.8281V28.2426C67.8281 27.6538 68.3025 27.1785 68.8901 27.1785H81.0749L84.6858 13.536L61.2578 3.87354L51.6005 21.4321L44.5205 15.8914L44.4638 15.9481C44.0603 16.3667 43.3877 16.3809 42.9699 15.9765C42.9558 15.9694 42.9487 15.9552 42.9416 15.9481L42.8779 15.8843L35.6562 21.4959L25.9282 3.81678ZM43.4939 19.6939C43.9895 19.6939 44.393 20.0983 44.393 20.5949C44.393 21.0915 43.9895 21.4959 43.4939 21.4959C42.9983 21.4959 42.5947 21.0915 42.5947 20.5949C42.5947 20.0983 42.9983 19.6939 43.4939 19.6939ZM43.4939 24.887C43.9895 24.887 44.393 25.2914 44.393 25.788C44.393 26.2846 43.9895 26.689 43.4939 26.689C42.9983 26.689 42.5947 26.2846 42.5947 25.788C42.5947 25.2914 42.9983 24.887 43.4939 24.887ZM30.1196 0.170283C34.6154 1.09964 39.0971 1.56787 43.5505 1.56787C47.8977 1.56787 52.2378 1.12802 56.5637 0.234132C56.854 1.8352e-05 57.2575 -0.0709252 57.6328 0.0780563L86.3 11.9114C86.8098 12.0959 87.1071 12.6422 86.9655 13.1813L82.9228 28.4413C82.8308 28.9308 82.3989 29.3068 81.882 29.3068H69.945V68.9359C69.945 69.5247 69.4707 70 68.883 70H17.8498C17.2622 70 16.7878 69.5247 16.7878 68.9359V29.0372H4.44723C3.9587 29.0372 3.51974 28.6967 3.41353 28.2001L0.0292561 12.7344C-0.0769451 12.2307 0.185018 11.7128 0.680623 11.5213L29.3762 0.177377C29.6169 0.0851506 29.8789 0.0851506 30.1196 0.170283ZM32.9587 2.83776L35.1818 5.08667L43.6921 13.5928L54.029 2.85195C50.5527 3.40531 47.0551 3.68199 43.5505 3.68199C40.0317 3.68199 36.4987 3.39821 32.9587 2.83776Z" fill="black"/>
</svg>
