<svg width="52" height="65" viewBox="0 0 52 65" fill="none" xmlns="http://www.w3.org/2000/svg">
<path d="M11.4296 13.2084C11.4296 12.6742 11.8639 12.2457 12.3936 12.2457C12.9285 12.2457 13.3575 12.6794 13.3575 13.2084V30.839C13.3575 31.3733 12.9232 31.8018 12.3936 31.8018H0.963944C0.434304 31.807 0 31.3733 0 30.8443V2.07357C0 1.50757 0.233041 0.989176 0.609085 0.608317L0.614382 0.603027C0.995722 0.232747 1.50947 0 2.08148 0H11.2813C11.848 0 12.3724 0.232747 12.7484 0.613607C13.1245 0.989176 13.3575 1.50757 13.3575 2.07886V4.52271C13.3575 5.05697 12.9232 5.48543 12.3936 5.48543C11.8586 5.48543 11.4296 5.05168 11.4296 4.52271V2.07357C11.4296 2.03654 11.4137 1.99951 11.3872 1.96777C11.3608 1.94132 11.3237 1.92546 11.2813 1.92546H2.08148C2.03911 1.92546 2.00204 1.94132 1.97556 1.96777L1.97026 1.97306C1.94378 1.99951 1.92789 2.03654 1.92789 2.07886V29.8816H11.4296V13.2084ZM11.4243 52.8337L0.111224 31.2887C-0.13241 30.8179 0.0476676 30.2413 0.519047 29.9927C0.662049 29.9186 0.815645 29.8816 0.963944 29.8816V29.8763H51.0308C51.5657 29.8763 51.9947 30.3101 51.9947 30.839C51.9947 30.8761 51.9947 30.9131 51.9894 30.9501C51.7193 42.45 46.0733 45.6873 41.3225 48.4062C38.5472 49.9984 36.1161 51.3896 35.6606 54.3359L35.6553 54.3624C35.4805 55.5155 35.5759 56.838 35.9413 58.335C36.3227 59.8954 36.9953 61.6516 37.9751 63.6035C38.2135 64.0796 38.0175 64.6562 37.5408 64.8942C37.4031 64.963 37.2548 64.9947 37.1118 64.9947H6.89061C6.35567 64.9947 5.92666 64.561 5.92666 64.032C5.92666 63.8468 5.97963 63.6723 6.07496 63.5242L11.4243 52.8337ZM2.55816 31.807L13.3575 52.3787C13.4952 52.6432 13.5058 52.9659 13.3628 53.2515L8.44775 63.0745H35.5865C34.8979 61.5458 34.3948 60.1176 34.0717 58.7952C33.6427 57.039 33.5368 55.4679 33.7486 54.082L33.7539 54.0503C34.3524 50.1888 37.1595 48.5807 40.3638 46.7452C44.5586 44.3437 49.5213 41.4978 50.035 31.8123H2.55816V31.807ZM12.5048 53.7858C11.9699 53.7858 11.5408 53.3521 11.5408 52.8231C11.5408 52.2888 11.9751 51.8604 12.5048 51.8604H23.0393C23.5743 51.8604 24.0033 52.2941 24.0033 52.8231C24.0033 53.3573 23.569 53.7858 23.0393 53.7858H12.5048ZM13.3522 30.9871C13.2728 31.5108 12.7802 31.8758 12.2559 31.7965C11.7315 31.7171 11.3661 31.2252 11.4455 30.7015C11.5991 29.707 11.848 28.8078 12.1976 28.0196C12.563 27.1997 13.0344 26.5068 13.6117 25.9408C15.4867 24.1105 17.87 24.1528 20.1475 24.1952C20.3487 24.2004 20.5447 24.2004 21.0585 24.2004H41.6932C46.5871 24.1687 52.0106 24.1317 51.9841 31.0771C51.9841 31.606 51.5551 32.0345 51.0255 32.0345C50.4958 32.0345 50.0668 31.606 50.0668 31.0771C50.088 26.0624 45.6814 26.0942 41.7091 26.1206C41.1106 26.1259 41.1265 26.1312 40.7716 26.1312H21.0638L20.121 26.1153C18.2355 26.0836 16.2599 26.0466 14.957 27.3214C14.5492 27.7181 14.2208 28.21 13.956 28.7972C13.6806 29.4108 13.4793 30.1408 13.3522 30.9871ZM8.11937 5.90861C9.61825 5.90861 10.8311 7.11996 10.8311 8.61694C10.8311 10.1139 9.61825 11.3253 8.11937 11.3253C6.62049 11.3253 5.40762 10.1139 5.40762 8.61694C5.40762 7.11996 6.62579 5.90861 8.11937 5.90861ZM10.8311 9.57967C10.2962 9.57967 9.86718 9.14592 9.86718 8.61694C9.86718 8.08268 10.3015 7.65422 10.8311 7.65422H17.3351C17.87 7.65422 18.299 8.08797 18.299 8.61694C18.299 9.15121 17.8647 9.57967 17.3351 9.57967H10.8311Z" fill="black"/>
</svg>
