<svg width="15" height="11" viewBox="0 0 15 11" fill="none" xmlns="http://www.w3.org/2000/svg">
<g clip-path="url(#clip0)">
<path d="M0.86084 0H14.1396C14.3666 0.00215081 14.5836 0.0898288 14.7435 0.244041C14.9035 0.398253 14.9935 0.606582 14.9941 0.823898V9.56072C14.9954 9.72742 14.9434 9.89052 14.8452 10.0282C14.8276 10.0723 14.8001 10.1122 14.7646 10.145C14.7408 10.1668 14.7137 10.185 14.6841 10.1988C14.5301 10.3232 14.3351 10.3915 14.1335 10.3916H0.86084C0.634904 10.3895 0.418852 10.3026 0.259083 10.1497C0.0993151 9.99671 0.00857378 9.78987 0.00634766 9.57357V0.823898C0.00697868 0.606582 0.0970155 0.398253 0.256954 0.244041C0.416893 0.0898288 0.633854 0.00215081 0.86084 0V0ZM0.824219 9.21363L5.31396 4.74705L0.824219 1.11489V9.21363ZM5.99023 5.3045L1.19287 9.75238H13.7661L9.18237 5.3045L7.8396 6.38082C7.78043 6.42787 7.70594 6.45362 7.62903 6.45362C7.55212 6.45362 7.47763 6.42787 7.41846 6.38082L5.99023 5.3045ZM9.84766 4.73887L14.1763 9.24986V1.07516L9.84766 4.73887ZM1.24658 0.632239L7.61621 5.57446L13.7051 0.632239H1.24658Z" fill="#787878"/>
</g>
<defs>
<clipPath id="clip0">
<rect width="15" height="10.3846" fill="white"/>
</clipPath>
</defs>
</svg>
