<svg width="20" height="13" viewBox="0 0 20 13" fill="none" xmlns="http://www.w3.org/2000/svg">
<path d="M0.155442 6.08838C0.631032 5.51292 1.12892 4.98916 1.64487 4.51841C3.97806 2.39027 6.74843 1.25337 9.60457 1.19628C10.6725 1.17491 11.7506 1.30475 12.8203 1.59036L11.8593 2.55338C11.1137 2.40397 10.3671 2.33742 9.6272 2.35226C7.05377 2.40381 4.54659 3.43811 2.42304 5.37525C2.04478 5.72023 1.68052 6.09132 1.33221 6.48768C1.99481 7.25774 2.73196 7.92325 3.52168 8.48208C4.00801 8.82641 4.51404 9.13013 5.03471 9.39323L4.17826 10.2515C3.72546 10.0062 3.28405 9.73218 2.85664 9.4296C1.85679 8.72202 0.933932 7.85898 0.125494 6.84425C-0.0550085 6.61638 -0.0371047 6.29456 0.155442 6.08838ZM15.63 0L16.5892 0.961229L4.5767 13L3.61738 12.0384L15.63 0ZM15.9051 2.87227C16.625 3.28446 17.332 3.77396 18.02 4.34258C18.651 4.86389 19.2627 5.44735 19.8494 6.0936C20.0387 6.3019 20.048 6.61084 19.8862 6.82876C19.2139 7.78036 18.4416 8.59299 17.5963 9.26943C15.4817 10.9611 12.9132 11.7939 10.3113 11.8057C9.31616 11.8101 8.71655 11.2933 7.73558 11.0593L8.31257 10.4814C8.9742 10.5964 9.64185 10.6525 10.3067 10.6495C12.6539 10.6391 14.9703 9.88812 16.8768 8.36268C17.5275 7.84218 18.131 7.23083 18.6717 6.527C18.2181 6.05315 17.7558 5.62286 17.2869 5.23546C16.5618 4.63634 15.8152 4.13298 15.056 3.72291L15.9051 2.87227ZM10.0001 2.95937C10.4337 2.95937 10.849 3.03783 11.2332 3.18104L10.3072 4.109C10.2065 4.09611 10.1041 4.08959 10.0002 4.08959C9.33602 4.08959 8.73478 4.35938 8.29955 4.79554C7.86433 5.23171 7.59512 5.83441 7.59512 6.50008C7.59512 6.60431 7.60163 6.70691 7.61449 6.80755L6.68854 7.73583C6.54547 7.35105 6.46734 6.93462 6.46734 6.50008C6.46734 5.52221 6.86285 4.63732 7.50218 3.99645C8.14135 3.35558 9.02449 2.95937 10.0001 2.95937ZM13.3649 5.41798C13.4739 5.75889 13.5328 6.12264 13.5328 6.50008C13.5328 7.47778 13.1373 8.36284 12.4982 9.00355C11.8587 9.64426 10.9755 10.0405 10.0001 10.0405C9.62362 10.0405 9.26082 9.98158 8.92049 9.87197L9.88306 8.90731C9.9218 8.90927 9.96086 8.91025 10.0001 8.91025C10.6643 8.91025 11.2656 8.64079 11.7008 8.20462C12.136 7.76845 12.4052 7.16575 12.4052 6.50025C12.4052 6.46093 12.4042 6.42195 12.4023 6.3828L13.3649 5.41798Z" fill="#A4A4A4"/>
</svg>
