<svg width="979" height="2178" viewBox="0 0 979 2178" fill="none" xmlns="http://www.w3.org/2000/svg">
<path fill-rule="evenodd" clip-rule="evenodd" d="M812.917 55.584H161.71C108.607 55.584 65.559 101.208 65.559 157.488V2019.55C65.559 2075.83 108.607 2121.46 161.71 2121.46H812.917C866.02 2121.46 909.069 2075.83 909.069 2019.55V157.488C909.069 101.208 866.02 55.584 812.917 55.584ZM161.71 0C79.6422 0 13.1128 70.5098 13.1128 157.488V2019.55C13.1128 2106.53 79.6422 2177.04 161.71 2177.04H812.917C894.985 2177.04 961.515 2106.53 961.515 2019.55V157.488C961.515 70.5098 894.985 0 812.917 0H161.71Z" fill="white"/>
<path d="M0 662.376C0 652.143 7.82699 643.848 17.4821 643.848H43.7052C53.3602 643.848 61.1872 652.143 61.1872 662.376V773.544C61.1872 783.776 53.3602 792.072 43.7052 792.072H17.4821C7.82699 792.072 0 783.776 0 773.544V662.376Z" fill="white"/>
<path d="M0 481.728C0 471.495 7.82699 463.2 17.4821 463.2H43.7052C53.3602 463.2 61.1872 471.495 61.1872 481.728V592.896C61.1872 603.129 53.3602 611.424 43.7052 611.424H17.4821C7.82699 611.424 0 603.129 0 592.896V481.728Z" fill="white"/>
<path d="M917.812 504.887C917.812 494.655 925.639 486.359 935.295 486.359H961.518C971.173 486.359 979 494.655 979 504.887V768.911C979 779.144 971.173 787.439 961.518 787.439H935.295C925.639 787.439 917.812 779.144 917.812 768.911V504.887Z" fill="white"/>
<path d="M4.38135 324.24C4.38135 314.007 12.2083 305.712 21.8634 305.712H48.0865C57.7416 305.712 65.5686 314.007 65.5686 324.24V370.56C65.5686 380.792 57.7416 389.088 48.0865 389.088H21.8634C12.2083 389.088 4.38135 380.792 4.38135 370.56V324.24Z" fill="white"/>
<rect x="61.1899" y="55.5842" width="856.621" height="2065.87" fill="white"/>
</svg>
