<svg width="11" height="15" viewBox="0 0 11 15" fill="none" xmlns="http://www.w3.org/2000/svg">
<path d="M1.01872 5.58211H1.35395V4.51522C1.35395 3.2772 1.8182 2.15184 2.56616 1.33251C3.31843 0.508663 4.35871 0 5.50204 0C6.6456 0 7.68565 0.508663 8.43792 1.33251C9.18588 2.15184 9.65002 3.27732 9.65002 4.51522V5.58211H9.98536C10.2647 5.58211 10.5184 5.70369 10.7032 5.89277C10.888 6.08638 10.9999 6.352 10.9999 6.6446V13.9374C10.9999 14.2301 10.8838 14.4957 10.7032 14.6893C10.5184 14.8829 10.2647 15 9.98536 15H1.01441C0.73502 15 0.481388 14.8784 0.296525 14.6893C0.11178 14.4957 0 14.2301 0 13.9374V6.6446C0 6.352 0.116092 6.08638 0.296525 5.89277C0.481271 5.69917 0.73502 5.58211 1.01441 5.58211H1.01872ZM2.07183 5.58211H8.93668V4.51522C8.93668 3.47531 8.54982 2.5344 7.92215 1.8502C7.29891 1.1704 6.44348 0.747308 5.50204 0.747308C4.56071 0.747308 3.70529 1.17052 3.08205 1.85033C2.45881 2.53453 2.06752 3.47544 2.06752 4.51534V5.58223L2.07183 5.58211ZM9.98978 6.32954H1.01872C0.937016 6.32954 0.859621 6.36555 0.808102 6.42414C0.75227 6.48261 0.717885 6.55915 0.717885 6.64472V13.9375C0.717885 14.0231 0.75227 14.1041 0.808102 14.1583C0.863933 14.2168 0.937016 14.2527 1.01872 14.2527H9.98978C10.0715 14.2527 10.1488 14.2167 10.2004 14.1583C10.2562 14.0997 10.2907 14.0232 10.2907 13.9375V6.6446C10.2907 6.55903 10.2562 6.47797 10.2004 6.4239C10.1445 6.36543 10.0715 6.32942 9.98978 6.32954Z" fill="#787878"/>
</svg>
