<?xml version="1.0" encoding="utf-8"?><svg version="1.1" id="Layer_1" xmlns="http://www.w3.org/2000/svg" xmlns:xlink="http://www.w3.org/1999/xlink" x="0px" y="0px" viewBox="0 0 60.8 122.88" style="enable-background:new 0 0 60.8 122.88" xml:space="preserve"><style type="text/css">.st0{fill-rule:evenodd;clip-rule:evenodd;}</style><g><path class="st0" d="M12.35,0h8.07v6.87c0,0.91,0.74,1.65,1.65,1.65c0.91,0,1.65-0.74,1.65-1.65V0h5.49v6.87 c0,0.91,0.74,1.65,1.65,1.65c0.91,0,1.65-0.74,1.65-1.65V0h5.49v6.87c0,0.91,0.74,1.65,1.65,1.65c0.91,0,1.65-0.74,1.65-1.65V0 h7.05c0.91,0,1.65,0.74,1.65,1.65v12.91c0,0.91-0.74,1.65-1.65,1.65h-2.55v4.72c4.25,1.69,7.9,4.58,10.54,8.25 c2.79,3.89,4.44,8.64,4.44,13.75v69.6c0,2.67-0.1,5.07-1.18,6.99c-1.18,2.09-3.3,3.36-7.22,3.36H9.64c-2.65,0-5.06-1.08-6.81-2.83 C1.08,118.3,0,115.89,0,113.24V44c0-5.35,1.73-10.32,4.65-14.39c2.77-3.85,6.62-6.88,11.09-8.63v-4.76h-3.4 c-0.91,0-1.65-0.74-1.65-1.65V1.65C10.69,0.74,11.43,0,12.35,0L12.35,0z M3.31,45.45c10.87,3.54,20.7,0.44,29.43-2.32 c9.27-2.93,17.39-5.5,24.75-0.24c-0.01-4.39-1.42-8.46-3.81-11.79c-2.45-3.41-5.92-6.03-9.96-7.43c-0.7-0.19-1.22-0.83-1.22-1.6 v-5.87H19.05v5.91h0c0,0.69-0.44,1.33-1.13,1.56c-4.29,1.45-7.99,4.23-10.59,7.84C4.8,35.05,3.31,39.36,3.31,44V45.45L3.31,45.45z M57.49,47.19c-6.58-6.34-14.54-3.82-23.76-0.91c-8.94,2.83-18.98,6-30.42,2.62v64.33c0,1.74,0.71,3.32,1.86,4.47 c1.15,1.15,2.73,1.86,4.47,1.86H52.4c2.51,0,3.76-0.63,4.35-1.67c0.68-1.21,0.74-3.16,0.74-5.37V47.19L57.49,47.19z"/></g></svg>