<svg width="347" height="215" viewBox="0 0 347 215" fill="none" xmlns="http://www.w3.org/2000/svg">
<g filter="url(#filter0_d)">
<rect x="11" y="15" width="319" height="187" rx="13" fill="url(#paint0_linear)"/>
<path fill-rule="evenodd" clip-rule="evenodd" d="M284.453 140H286.71V141.845C286.71 142.089 286.916 142.288 287.171 142.288C287.425 142.288 287.632 142.089 287.632 141.845V140H289.167V141.845C289.167 142.089 289.374 142.288 289.629 142.288C289.883 142.288 290.09 142.089 290.09 141.845V140H291.625V141.845C291.625 142.089 291.832 142.288 292.086 142.288C292.341 142.288 292.548 142.089 292.548 141.845V140H294.519C294.773 140 294.98 140.199 294.98 140.443V143.91C294.98 144.155 294.773 144.353 294.519 144.353H293.806V145.621C294.994 146.075 296.015 146.851 296.753 147.836C297.533 148.881 297.994 150.157 297.994 151.529V170.22C297.994 170.938 297.966 171.582 297.664 172.098C297.335 172.659 296.742 173 295.646 173H283.695C282.954 173 282.281 172.71 281.791 172.24C281.302 171.77 281 171.123 281 170.411V151.816C281 150.38 281.484 149.045 282.3 147.952C283.075 146.918 284.151 146.104 285.401 145.634V144.356H284.45C284.196 144.356 283.989 144.157 283.989 143.913V140.443C283.989 140.199 284.196 140 284.453 140ZM281.925 152.206C284.965 153.156 287.713 152.324 290.154 151.583C292.746 150.796 295.017 150.106 297.075 151.518C297.072 150.339 296.677 149.246 296.009 148.352C295.324 147.436 294.354 146.733 293.224 146.357C293.029 146.306 292.883 146.134 292.883 145.927V144.351H286.326V145.938C286.326 146.123 286.203 146.295 286.011 146.357C284.811 146.746 283.776 147.493 283.05 148.462C282.342 149.413 281.925 150.57 281.925 151.816V152.206ZM297.075 152.673C295.235 150.97 293.009 151.647 290.431 152.429C287.931 153.189 285.124 154.04 281.925 153.132V170.408C281.925 170.876 282.124 171.3 282.446 171.609C282.767 171.918 283.209 172.108 283.695 172.108H295.651C296.353 172.108 296.703 171.939 296.868 171.66C297.058 171.335 297.075 170.811 297.075 170.218V152.673Z" fill="white"/>
<path d="M267.08 184L266.112 178.784H267.32L267.68 181.224C267.712 181.496 267.747 181.771 267.784 182.048C267.821 182.32 267.856 182.595 267.888 182.872H267.92C267.973 182.595 268.024 182.32 268.072 182.048C268.125 181.771 268.179 181.496 268.232 181.224L268.792 178.784H269.792L270.352 181.224C270.405 181.491 270.456 181.763 270.504 182.04C270.557 182.312 270.611 182.589 270.664 182.872H270.696C270.733 182.589 270.768 182.312 270.8 182.04C270.837 181.768 270.875 181.496 270.912 181.224L271.272 178.784H272.4L271.472 184H269.992L269.48 181.632C269.437 181.429 269.397 181.227 269.36 181.024C269.328 180.816 269.299 180.616 269.272 180.424H269.24C269.208 180.616 269.173 180.816 269.136 181.024C269.104 181.227 269.067 181.429 269.024 181.632L268.536 184H267.08ZM273.854 184.096C273.673 184.096 273.507 184.064 273.358 184C273.214 183.941 273.091 183.859 272.99 183.752C272.889 183.64 272.809 183.512 272.75 183.368C272.697 183.224 272.67 183.067 272.67 182.896C272.67 182.48 272.846 182.155 273.198 181.92C273.55 181.685 274.118 181.528 274.902 181.448C274.891 181.272 274.838 181.133 274.742 181.032C274.651 180.925 274.497 180.872 274.278 180.872C274.107 180.872 273.937 180.904 273.766 180.968C273.601 181.032 273.422 181.12 273.23 181.232L272.806 180.456C273.062 180.301 273.329 180.176 273.606 180.08C273.889 179.984 274.187 179.936 274.502 179.936C275.014 179.936 275.403 180.083 275.67 180.376C275.942 180.664 276.078 181.115 276.078 181.728V184H275.118L275.038 183.592H275.006C274.835 183.741 274.657 183.864 274.47 183.96C274.283 184.051 274.078 184.096 273.854 184.096ZM274.254 183.184C274.387 183.184 274.502 183.155 274.598 183.096C274.694 183.037 274.795 182.955 274.902 182.848V182.152C274.486 182.211 274.198 182.296 274.038 182.408C273.878 182.52 273.798 182.653 273.798 182.808C273.798 182.936 273.838 183.032 273.918 183.096C274.003 183.155 274.115 183.184 274.254 183.184ZM278.38 184.096C278.135 184.096 277.924 184.059 277.748 183.984C277.578 183.909 277.436 183.805 277.324 183.672C277.218 183.539 277.138 183.379 277.084 183.192C277.036 183 277.012 182.789 277.012 182.56V180.952H276.468V180.08L277.076 180.032L277.212 178.976H278.188V180.032H279.14V180.952H278.188V182.544C278.188 182.768 278.234 182.931 278.324 183.032C278.42 183.128 278.546 183.176 278.7 183.176C278.764 183.176 278.828 183.168 278.892 183.152C278.962 183.136 279.023 183.117 279.076 183.096L279.26 183.952C279.154 183.984 279.028 184.016 278.884 184.048C278.74 184.08 278.572 184.096 278.38 184.096ZM281.47 184.096C281.187 184.096 280.923 184.051 280.678 183.96C280.433 183.864 280.219 183.728 280.038 183.552C279.857 183.371 279.715 183.152 279.614 182.896C279.513 182.64 279.462 182.347 279.462 182.016C279.462 181.696 279.515 181.408 279.622 181.152C279.729 180.891 279.867 180.672 280.038 180.496C280.214 180.315 280.414 180.176 280.638 180.08C280.862 179.984 281.094 179.936 281.334 179.936C281.617 179.936 281.862 179.984 282.07 180.08C282.283 180.176 282.459 180.309 282.598 180.48C282.742 180.651 282.849 180.853 282.918 181.088C282.987 181.317 283.022 181.568 283.022 181.84C283.022 181.947 283.017 182.048 283.006 182.144C282.995 182.24 282.985 182.312 282.974 182.36H280.598C280.651 182.648 280.769 182.861 280.95 183C281.137 183.133 281.363 183.2 281.63 183.2C281.913 183.2 282.198 183.112 282.486 182.936L282.878 183.648C282.675 183.787 282.449 183.896 282.198 183.976C281.953 184.056 281.71 184.096 281.47 184.096ZM280.59 181.584H282.022C282.022 181.36 281.971 181.179 281.87 181.04C281.769 180.901 281.598 180.832 281.358 180.832C281.171 180.832 281.006 180.893 280.862 181.016C280.723 181.139 280.633 181.328 280.59 181.584ZM283.755 184V180.032H284.715L284.795 180.728H284.827C284.971 180.456 285.144 180.256 285.347 180.128C285.549 180 285.752 179.936 285.955 179.936C286.067 179.936 286.157 179.944 286.227 179.96C286.301 179.971 286.368 179.989 286.427 180.016L286.235 181.032C286.16 181.011 286.091 180.995 286.027 180.984C285.963 180.973 285.888 180.968 285.803 180.968C285.653 180.968 285.496 181.021 285.331 181.128C285.171 181.235 285.037 181.424 284.931 181.696V184H283.755ZM286.958 184V178.784H288.246L289.086 181.104C289.14 181.259 289.19 181.419 289.238 181.584C289.286 181.744 289.337 181.904 289.39 182.064H289.422C289.476 181.904 289.524 181.744 289.566 181.584C289.614 181.419 289.665 181.259 289.718 181.104L290.542 178.784H291.822V184H290.75V182.088C290.75 181.96 290.756 181.819 290.766 181.664C290.777 181.509 290.79 181.355 290.806 181.2C290.822 181.04 290.838 180.885 290.854 180.736C290.87 180.581 290.886 180.44 290.902 180.312H290.87L290.446 181.552L289.702 183.544H289.054L288.31 181.552L287.894 180.312H287.862C287.878 180.44 287.894 180.581 287.91 180.736C287.926 180.885 287.942 181.04 287.958 181.2C287.974 181.355 287.988 181.509 287.998 181.664C288.009 181.819 288.014 181.96 288.014 182.088V184H286.958ZM293.876 184.096C293.695 184.096 293.529 184.064 293.38 184C293.236 183.941 293.113 183.859 293.012 183.752C292.911 183.64 292.831 183.512 292.772 183.368C292.719 183.224 292.692 183.067 292.692 182.896C292.692 182.48 292.868 182.155 293.22 181.92C293.572 181.685 294.14 181.528 294.924 181.448C294.913 181.272 294.86 181.133 294.764 181.032C294.673 180.925 294.519 180.872 294.3 180.872C294.129 180.872 293.959 180.904 293.788 180.968C293.623 181.032 293.444 181.12 293.252 181.232L292.828 180.456C293.084 180.301 293.351 180.176 293.628 180.08C293.911 179.984 294.209 179.936 294.524 179.936C295.036 179.936 295.425 180.083 295.692 180.376C295.964 180.664 296.1 181.115 296.1 181.728V184H295.14L295.06 183.592H295.028C294.857 183.741 294.679 183.864 294.492 183.96C294.305 184.051 294.1 184.096 293.876 184.096ZM294.276 183.184C294.409 183.184 294.524 183.155 294.62 183.096C294.716 183.037 294.817 182.955 294.924 182.848V182.152C294.508 182.211 294.22 182.296 294.06 182.408C293.9 182.52 293.82 182.653 293.82 182.808C293.82 182.936 293.86 183.032 293.94 183.096C294.025 183.155 294.137 183.184 294.276 183.184ZM298.402 184.096C298.157 184.096 297.946 184.059 297.77 183.984C297.599 183.909 297.458 183.805 297.346 183.672C297.239 183.539 297.159 183.379 297.106 183.192C297.058 183 297.034 182.789 297.034 182.56V180.952H296.49V180.08L297.098 180.032L297.234 178.976H298.21V180.032H299.162V180.952H298.21V182.544C298.21 182.768 298.255 182.931 298.346 183.032C298.442 183.128 298.567 183.176 298.722 183.176C298.786 183.176 298.85 183.168 298.914 183.152C298.983 183.136 299.045 183.117 299.098 183.096L299.282 183.952C299.175 183.984 299.05 184.016 298.906 184.048C298.762 184.08 298.594 184.096 298.402 184.096ZM301.228 184.096C300.983 184.096 300.772 184.059 300.596 183.984C300.426 183.909 300.284 183.805 300.172 183.672C300.066 183.539 299.986 183.379 299.932 183.192C299.884 183 299.86 182.789 299.86 182.56V180.952H299.316V180.08L299.924 180.032L300.06 178.976H301.036V180.032H301.988V180.952H301.036V182.544C301.036 182.768 301.082 182.931 301.172 183.032C301.268 183.128 301.394 183.176 301.548 183.176C301.612 183.176 301.676 183.168 301.74 183.152C301.81 183.136 301.871 183.117 301.924 183.096L302.108 183.952C302.002 183.984 301.876 184.016 301.732 184.048C301.588 184.08 301.42 184.096 301.228 184.096ZM304.318 184.096C304.036 184.096 303.772 184.051 303.526 183.96C303.281 183.864 303.068 183.728 302.886 183.552C302.705 183.371 302.564 183.152 302.462 182.896C302.361 182.64 302.31 182.347 302.31 182.016C302.31 181.696 302.364 181.408 302.47 181.152C302.577 180.891 302.716 180.672 302.886 180.496C303.062 180.315 303.262 180.176 303.486 180.08C303.71 179.984 303.942 179.936 304.182 179.936C304.465 179.936 304.71 179.984 304.918 180.08C305.132 180.176 305.308 180.309 305.446 180.48C305.59 180.651 305.697 180.853 305.766 181.088C305.836 181.317 305.87 181.568 305.87 181.84C305.87 181.947 305.865 182.048 305.854 182.144C305.844 182.24 305.833 182.312 305.822 182.36H303.446C303.5 182.648 303.617 182.861 303.798 183C303.985 183.133 304.212 183.2 304.478 183.2C304.761 183.2 305.046 183.112 305.334 182.936L305.726 183.648C305.524 183.787 305.297 183.896 305.046 183.976C304.801 184.056 304.558 184.096 304.318 184.096ZM303.438 181.584H304.87C304.87 181.36 304.82 181.179 304.718 181.04C304.617 180.901 304.446 180.832 304.206 180.832C304.02 180.832 303.854 180.893 303.71 181.016C303.572 181.139 303.481 181.328 303.438 181.584ZM306.603 184V180.032H307.563L307.643 180.728H307.675C307.819 180.456 307.992 180.256 308.195 180.128C308.397 180 308.6 179.936 308.803 179.936C308.915 179.936 309.005 179.944 309.075 179.96C309.149 179.971 309.216 179.989 309.275 180.016L309.083 181.032C309.008 181.011 308.939 180.995 308.875 180.984C308.811 180.973 308.736 180.968 308.651 180.968C308.501 180.968 308.344 181.021 308.179 181.128C308.019 181.235 307.885 181.424 307.779 181.696V184H306.603ZM310.816 184.096C310.554 184.096 310.285 184.045 310.008 183.944C309.736 183.843 309.498 183.709 309.296 183.544L309.824 182.808C310.005 182.947 310.178 183.051 310.344 183.12C310.509 183.189 310.677 183.224 310.848 183.224C311.024 183.224 311.152 183.195 311.232 183.136C311.312 183.077 311.352 182.995 311.352 182.888C311.352 182.824 311.328 182.768 311.28 182.72C311.237 182.667 311.176 182.619 311.096 182.576C311.021 182.533 310.936 182.496 310.84 182.464C310.744 182.427 310.645 182.387 310.544 182.344C310.421 182.296 310.298 182.24 310.176 182.176C310.053 182.112 309.941 182.035 309.84 181.944C309.738 181.848 309.656 181.739 309.592 181.616C309.528 181.488 309.496 181.341 309.496 181.176C309.496 180.995 309.53 180.827 309.6 180.672C309.674 180.517 309.778 180.387 309.912 180.28C310.045 180.173 310.205 180.091 310.392 180.032C310.578 179.968 310.786 179.936 311.016 179.936C311.32 179.936 311.586 179.989 311.816 180.096C312.045 180.197 312.245 180.312 312.416 180.44L311.888 181.144C311.744 181.037 311.602 180.955 311.464 180.896C311.325 180.837 311.186 180.808 311.048 180.808C310.749 180.808 310.6 180.912 310.6 181.12C310.6 181.184 310.621 181.24 310.664 181.288C310.706 181.331 310.762 181.371 310.832 181.408C310.906 181.445 310.989 181.483 311.08 181.52C311.176 181.552 311.274 181.587 311.376 181.624C311.504 181.672 311.629 181.728 311.752 181.792C311.88 181.851 311.994 181.925 312.096 182.016C312.202 182.107 312.288 182.219 312.352 182.352C312.416 182.48 312.448 182.635 312.448 182.816C312.448 182.997 312.413 183.165 312.344 183.32C312.274 183.475 312.17 183.611 312.032 183.728C311.893 183.84 311.722 183.931 311.52 184C311.317 184.064 311.082 184.096 310.816 184.096Z" fill="white"/>
<path d="M28.856 107V99.608H26.35V97.872H33.434V99.608H30.928V107H28.856ZM34.8573 107V97.872H36.9153V107H34.8573ZM39.0682 107V97.872H41.3222L42.7922 101.932C42.8856 102.203 42.9742 102.483 43.0582 102.772C43.1422 103.052 43.2309 103.332 43.3242 103.612H43.3802C43.4736 103.332 43.5576 103.052 43.6322 102.772C43.7162 102.483 43.8049 102.203 43.8982 101.932L45.3402 97.872H47.5802V107H45.7042V103.654C45.7042 103.43 45.7136 103.183 45.7322 102.912C45.7509 102.641 45.7742 102.371 45.8022 102.1C45.8302 101.82 45.8582 101.549 45.8862 101.288C45.9142 101.017 45.9422 100.77 45.9702 100.546H45.9142L45.1722 102.716L43.8702 106.202H42.7362L41.4342 102.716L40.7062 100.546H40.6502C40.6782 100.77 40.7062 101.017 40.7342 101.288C40.7622 101.549 40.7902 101.82 40.8182 102.1C40.8462 102.371 40.8696 102.641 40.8882 102.912C40.9069 103.183 40.9162 103.43 40.9162 103.654V107H39.0682ZM53.4423 107.168C52.8263 107.168 52.2616 107.061 51.7483 106.846C51.2443 106.622 50.8103 106.305 50.4463 105.894C50.0823 105.483 49.7976 104.984 49.5923 104.396C49.3963 103.808 49.2983 103.141 49.2983 102.394C49.2983 101.647 49.3963 100.985 49.5923 100.406C49.7976 99.818 50.0823 99.328 50.4463 98.936C50.8103 98.5347 51.2443 98.2313 51.7483 98.026C52.2616 97.8113 52.8263 97.704 53.4423 97.704C54.0583 97.704 54.6183 97.8113 55.1223 98.026C55.6356 98.2313 56.0743 98.5347 56.4383 98.936C56.8023 99.3373 57.0823 99.832 57.2783 100.42C57.4836 100.999 57.5863 101.657 57.5863 102.394C57.5863 103.141 57.4836 103.808 57.2783 104.396C57.0823 104.984 56.8023 105.483 56.4383 105.894C56.0743 106.305 55.6356 106.622 55.1223 106.846C54.6183 107.061 54.0583 107.168 53.4423 107.168ZM53.4423 105.39C54.0676 105.39 54.5623 105.124 54.9263 104.592C55.2903 104.051 55.4723 103.318 55.4723 102.394C55.4723 101.479 55.2903 100.765 54.9263 100.252C54.5623 99.7387 54.0676 99.482 53.4423 99.482C52.817 99.482 52.3223 99.7387 51.9583 100.252C51.5943 100.765 51.4123 101.479 51.4123 102.394C51.4123 103.318 51.5943 104.051 51.9583 104.592C52.3223 105.124 52.817 105.39 53.4423 105.39ZM60.6841 107V99.608H58.1781V97.872H65.2621V99.608H62.7561V107H60.6841ZM66.6854 107V97.872H68.7434V101.386H71.8934V97.872H73.9654V107H71.8934V103.192H68.7434V107H66.6854ZM77.687 107V103.752L74.929 97.872H77.141L77.953 99.972C78.0837 100.317 78.205 100.653 78.317 100.98C78.4383 101.297 78.5643 101.633 78.695 101.988H78.751C78.8817 101.633 79.0077 101.297 79.129 100.98C79.2597 100.653 79.3903 100.317 79.521 99.972L80.347 97.872H82.503L79.745 103.752V107H77.687ZM86.2772 107V97.872H88.8532C89.5532 97.872 90.1832 97.9607 90.7432 98.138C91.3032 98.3153 91.7839 98.5907 92.1852 98.964C92.5866 99.328 92.8946 99.7947 93.1092 100.364C93.3239 100.933 93.4312 101.61 93.4312 102.394C93.4312 103.178 93.3239 103.859 93.1092 104.438C92.8946 105.017 92.5912 105.497 92.1992 105.88C91.8072 106.253 91.3359 106.533 90.7852 106.72C90.2439 106.907 89.6372 107 88.9652 107H86.2772ZM88.3352 105.334H88.7272C89.1192 105.334 89.4739 105.283 89.7912 105.18C90.1086 105.077 90.3792 104.914 90.6032 104.69C90.8272 104.457 90.9999 104.153 91.1212 103.78C91.2519 103.407 91.3172 102.945 91.3172 102.394C91.3172 101.853 91.2519 101.4 91.1212 101.036C90.9999 100.663 90.8272 100.369 90.6032 100.154C90.3792 99.93 90.1086 99.7713 89.7912 99.678C89.4739 99.5847 89.1192 99.538 88.7272 99.538H88.3352V105.334ZM97.1692 102.38L96.9452 103.22H98.8912L98.6812 102.38C98.5506 101.923 98.4246 101.437 98.3032 100.924C98.1819 100.411 98.0606 99.916 97.9392 99.44H97.8832C97.7712 99.9253 97.6546 100.425 97.5332 100.938C97.4212 101.442 97.2999 101.923 97.1692 102.38ZM93.8652 107L96.7212 97.872H99.1992L102.055 107H99.8712L99.3112 104.83H96.5252L95.9652 107H93.8652ZM104.389 107L101.631 97.872H103.815L104.907 102.128C105.047 102.632 105.168 103.122 105.271 103.598C105.383 104.065 105.509 104.55 105.649 105.054H105.705C105.835 104.55 105.957 104.065 106.069 103.598C106.181 103.122 106.302 102.632 106.433 102.128L107.511 97.872H109.611L106.867 107H104.389ZM110.586 107V97.872H112.644V107H110.586ZM117.583 107.168C116.985 107.168 116.388 107.061 115.791 106.846C115.203 106.622 114.675 106.291 114.209 105.852L115.385 104.438C115.711 104.718 116.071 104.947 116.463 105.124C116.864 105.301 117.256 105.39 117.639 105.39C118.068 105.39 118.385 105.311 118.591 105.152C118.805 104.993 118.913 104.779 118.913 104.508C118.913 104.368 118.88 104.247 118.815 104.144C118.759 104.041 118.67 103.953 118.549 103.878C118.437 103.794 118.297 103.719 118.129 103.654C117.97 103.579 117.793 103.5 117.597 103.416L116.407 102.912C116.173 102.819 115.945 102.697 115.721 102.548C115.506 102.399 115.31 102.226 115.133 102.03C114.965 101.825 114.829 101.591 114.727 101.33C114.624 101.059 114.573 100.756 114.573 100.42C114.573 100.047 114.652 99.6967 114.811 99.37C114.969 99.034 115.193 98.7447 115.483 98.502C115.772 98.25 116.113 98.054 116.505 97.914C116.906 97.774 117.345 97.704 117.821 97.704C118.353 97.704 118.875 97.8067 119.389 98.012C119.911 98.2173 120.369 98.516 120.761 98.908L119.711 100.21C119.412 99.9767 119.113 99.7993 118.815 99.678C118.516 99.5473 118.185 99.482 117.821 99.482C117.466 99.482 117.181 99.5567 116.967 99.706C116.761 99.846 116.659 100.047 116.659 100.308C116.659 100.448 116.691 100.569 116.757 100.672C116.831 100.765 116.929 100.854 117.051 100.938C117.181 101.013 117.331 101.087 117.499 101.162C117.667 101.227 117.849 101.302 118.045 101.386L119.221 101.862C119.781 102.086 120.219 102.394 120.537 102.786C120.863 103.178 121.027 103.696 121.027 104.34C121.027 104.723 120.947 105.087 120.789 105.432C120.639 105.768 120.415 106.067 120.117 106.328C119.827 106.58 119.468 106.785 119.039 106.944C118.609 107.093 118.124 107.168 117.583 107.168Z" fill="white"/>
<path d="M28.466 122.108C28.07 122.108 27.686 122.033 27.314 121.883C26.948 121.733 26.624 121.52 26.342 121.244L26.954 120.533C27.164 120.731 27.404 120.893 27.674 121.019C27.944 121.139 28.214 121.199 28.484 121.199C28.82 121.199 29.075 121.13 29.249 120.992C29.423 120.854 29.51 120.671 29.51 120.443C29.51 120.323 29.486 120.221 29.438 120.137C29.396 120.053 29.333 119.981 29.249 119.921C29.171 119.855 29.075 119.795 28.961 119.741C28.853 119.687 28.733 119.633 28.601 119.579L27.791 119.228C27.647 119.168 27.503 119.093 27.359 119.003C27.221 118.913 27.095 118.805 26.981 118.679C26.867 118.553 26.774 118.406 26.702 118.238C26.636 118.07 26.603 117.878 26.603 117.662C26.603 117.428 26.651 117.212 26.747 117.014C26.849 116.81 26.987 116.633 27.161 116.483C27.335 116.333 27.542 116.216 27.782 116.132C28.028 116.048 28.295 116.006 28.583 116.006C28.925 116.006 29.255 116.075 29.573 116.213C29.891 116.345 30.164 116.525 30.392 116.753L29.861 117.419C29.669 117.263 29.471 117.14 29.267 117.05C29.063 116.96 28.835 116.915 28.583 116.915C28.301 116.915 28.076 116.978 27.908 117.104C27.74 117.224 27.656 117.392 27.656 117.608C27.656 117.722 27.68 117.821 27.728 117.905C27.782 117.983 27.851 118.055 27.935 118.121C28.025 118.181 28.127 118.238 28.241 118.292C28.355 118.34 28.472 118.388 28.592 118.436L29.393 118.769C29.567 118.841 29.726 118.925 29.87 119.021C30.014 119.117 30.137 119.228 30.239 119.354C30.347 119.48 30.431 119.627 30.491 119.795C30.551 119.957 30.581 120.146 30.581 120.362C30.581 120.602 30.533 120.827 30.437 121.037C30.341 121.247 30.2 121.433 30.014 121.595C29.834 121.751 29.612 121.877 29.348 121.973C29.09 122.063 28.796 122.108 28.466 122.108ZM31.5613 122V117.581H32.5963V122H31.5613ZM32.0833 116.807C31.8973 116.807 31.7443 116.753 31.6243 116.645C31.5043 116.537 31.4443 116.396 31.4443 116.222C31.4443 116.048 31.5043 115.907 31.6243 115.799C31.7443 115.685 31.8973 115.628 32.0833 115.628C32.2693 115.628 32.4223 115.685 32.5423 115.799C32.6623 115.907 32.7223 116.048 32.7223 116.222C32.7223 116.396 32.6623 116.537 32.5423 116.645C32.4223 116.753 32.2693 116.807 32.0833 116.807ZM33.9168 122V117.581H34.7718L34.8438 118.175H34.8798C35.0778 117.983 35.2908 117.818 35.5188 117.68C35.7528 117.542 36.0228 117.473 36.3288 117.473C36.8028 117.473 37.1478 117.626 37.3638 117.932C37.5798 118.232 37.6878 118.664 37.6878 119.228V122H36.6528V119.363C36.6528 118.997 36.5988 118.739 36.4908 118.589C36.3828 118.439 36.2058 118.364 35.9598 118.364C35.7678 118.364 35.5968 118.412 35.4468 118.508C35.3028 118.598 35.1378 118.733 34.9518 118.913V122H33.9168ZM40.7979 122.108C40.4979 122.108 40.2159 122.057 39.9519 121.955C39.6939 121.853 39.4689 121.703 39.2769 121.505C39.0849 121.307 38.9349 121.064 38.8269 120.776C38.7189 120.488 38.6649 120.161 38.6649 119.795C38.6649 119.429 38.7249 119.102 38.8449 118.814C38.9649 118.526 39.1269 118.283 39.3309 118.085C39.5349 117.887 39.7689 117.737 40.0329 117.635C40.3029 117.527 40.5849 117.473 40.8789 117.473C41.1669 117.473 41.4129 117.521 41.6169 117.617C41.8269 117.713 42.0129 117.83 42.1749 117.968L41.6709 118.643C41.5509 118.541 41.4309 118.463 41.3109 118.409C41.1969 118.349 41.0709 118.319 40.9329 118.319C40.5729 118.319 40.2819 118.454 40.0599 118.724C39.8379 118.988 39.7269 119.345 39.7269 119.795C39.7269 120.239 39.8349 120.596 40.0509 120.866C40.2729 121.13 40.5579 121.262 40.9059 121.262C41.0799 121.262 41.2419 121.226 41.3919 121.154C41.5479 121.076 41.6889 120.986 41.8149 120.884L42.2379 121.568C42.0279 121.748 41.7969 121.883 41.5449 121.973C41.2989 122.063 41.0499 122.108 40.7979 122.108ZM44.7804 122.108C44.4744 122.108 44.1894 122.057 43.9254 121.955C43.6614 121.847 43.4304 121.694 43.2324 121.496C43.0344 121.298 42.8784 121.058 42.7644 120.776C42.6564 120.488 42.6024 120.161 42.6024 119.795C42.6024 119.435 42.6594 119.111 42.7734 118.823C42.8874 118.535 43.0374 118.292 43.2234 118.094C43.4154 117.896 43.6344 117.743 43.8804 117.635C44.1264 117.527 44.3784 117.473 44.6364 117.473C44.9364 117.473 45.2004 117.524 45.4284 117.626C45.6564 117.728 45.8454 117.872 45.9954 118.058C46.1514 118.244 46.2684 118.466 46.3464 118.724C46.4244 118.982 46.4634 119.264 46.4634 119.57C46.4634 119.672 46.4574 119.768 46.4454 119.858C46.4394 119.948 46.4304 120.02 46.4184 120.074H43.6104C43.6584 120.47 43.7964 120.776 44.0244 120.992C44.2584 121.202 44.5554 121.307 44.9154 121.307C45.1074 121.307 45.2844 121.28 45.4464 121.226C45.6144 121.166 45.7794 121.085 45.9414 120.983L46.2924 121.631C46.0824 121.769 45.8484 121.883 45.5904 121.973C45.3324 122.063 45.0624 122.108 44.7804 122.108ZM43.6014 119.372H45.5634C45.5634 119.03 45.4884 118.763 45.3384 118.571C45.1944 118.373 44.9694 118.274 44.6634 118.274C44.3994 118.274 44.1684 118.367 43.9704 118.553C43.7724 118.739 43.6494 119.012 43.6014 119.372ZM48.0369 119.03C47.8449 119.03 47.6829 118.964 47.5509 118.832C47.4249 118.7 47.3619 118.532 47.3619 118.328C47.3619 118.124 47.4249 117.956 47.5509 117.824C47.6829 117.692 47.8449 117.626 48.0369 117.626C48.2289 117.626 48.3879 117.692 48.5139 117.824C48.6399 117.956 48.7029 118.124 48.7029 118.328C48.7029 118.532 48.6399 118.7 48.5139 118.832C48.3879 118.964 48.2289 119.03 48.0369 119.03ZM48.0369 122.108C47.8449 122.108 47.6829 122.042 47.5509 121.91C47.4249 121.778 47.3619 121.61 47.3619 121.406C47.3619 121.202 47.4249 121.034 47.5509 120.902C47.6829 120.77 47.8449 120.704 48.0369 120.704C48.2289 120.704 48.3879 120.77 48.5139 120.902C48.6399 121.034 48.7029 121.202 48.7029 121.406C48.7029 121.61 48.6399 121.778 48.5139 121.91C48.3879 122.042 48.2289 122.108 48.0369 122.108ZM52.0154 122V121.06H53.4354V116.88H52.2654V116.16C52.5854 116.1 52.8587 116.03 53.0854 115.95C53.3187 115.863 53.5354 115.76 53.7354 115.64H54.5954V121.06H55.8454V122H52.0154ZM58.0823 122C58.109 121.433 58.159 120.917 58.2323 120.45C58.3057 119.977 58.409 119.527 58.5423 119.1C58.6823 118.673 58.859 118.26 59.0723 117.86C59.2857 117.453 59.5457 117.037 59.8523 116.61H56.8423V115.64H61.1123V116.34C60.739 116.8 60.4357 117.24 60.2023 117.66C59.9757 118.073 59.7957 118.5 59.6623 118.94C59.529 119.373 59.4323 119.837 59.3723 120.33C59.319 120.823 59.279 121.38 59.2523 122H58.0823ZM61.6493 123.6L63.9793 114.9H64.7593L62.4293 123.6H61.6493ZM67.5268 122.12C66.8601 122.12 66.3335 121.837 65.9468 121.27C65.5601 120.697 65.3668 119.87 65.3668 118.79C65.3668 117.71 65.5601 116.897 65.9468 116.35C66.3335 115.797 66.8601 115.52 67.5268 115.52C68.1935 115.52 68.7201 115.797 69.1068 116.35C69.4935 116.903 69.6868 117.717 69.6868 118.79C69.6868 119.87 69.4935 120.697 69.1068 121.27C68.7201 121.837 68.1935 122.12 67.5268 122.12ZM67.5268 121.22C67.6801 121.22 67.8201 121.18 67.9468 121.1C68.0801 121.013 68.1935 120.873 68.2868 120.68C68.3801 120.487 68.4535 120.237 68.5068 119.93C68.5601 119.623 68.5868 119.243 68.5868 118.79C68.5868 118.343 68.5601 117.97 68.5068 117.67C68.4535 117.363 68.3801 117.117 68.2868 116.93C68.1935 116.743 68.0801 116.613 67.9468 116.54C67.8201 116.46 67.6801 116.42 67.5268 116.42C67.3735 116.42 67.2301 116.46 67.0968 116.54C66.9701 116.613 66.8601 116.743 66.7668 116.93C66.6735 117.117 66.6001 117.363 66.5468 117.67C66.4935 117.97 66.4668 118.343 66.4668 118.79C66.4668 119.243 66.4935 119.623 66.5468 119.93C66.6001 120.237 66.6735 120.487 66.7668 120.68C66.8601 120.873 66.9701 121.013 67.0968 121.1C67.2301 121.18 67.3735 121.22 67.5268 121.22ZM73.0838 122V120.36H70.2738V119.58L72.7938 115.64H74.1638V119.47H74.9638V120.36H74.1638V122H73.0838ZM71.4137 119.47H73.0838V118.03C73.0838 117.843 73.0871 117.623 73.0938 117.37C73.1071 117.117 73.1204 116.897 73.1338 116.71H73.0938C73.0138 116.877 72.9304 117.04 72.8438 117.2C72.7571 117.36 72.6671 117.527 72.5738 117.7L71.4137 119.47ZM75.3407 123.6L77.6707 114.9H78.4507L76.1207 123.6H75.3407ZM79.0382 122V121.33C79.4782 120.903 79.8749 120.51 80.2282 120.15C80.5882 119.79 80.8915 119.457 81.1382 119.15C81.3915 118.843 81.5849 118.557 81.7182 118.29C81.8515 118.023 81.9182 117.77 81.9182 117.53C81.9182 117.19 81.8282 116.923 81.6482 116.73C81.4682 116.53 81.2082 116.43 80.8682 116.43C80.6215 116.43 80.3949 116.5 80.1882 116.64C79.9882 116.78 79.8015 116.947 79.6282 117.14L78.9882 116.5C79.2815 116.187 79.5815 115.947 79.8882 115.78C80.2015 115.607 80.5782 115.52 81.0182 115.52C81.3249 115.52 81.6015 115.567 81.8482 115.66C82.0949 115.753 82.3049 115.887 82.4782 116.06C82.6515 116.227 82.7849 116.43 82.8782 116.67C82.9782 116.91 83.0282 117.177 83.0282 117.47C83.0282 117.75 82.9649 118.037 82.8382 118.33C82.7182 118.617 82.5515 118.91 82.3382 119.21C82.1315 119.503 81.8882 119.807 81.6082 120.12C81.3282 120.433 81.0315 120.757 80.7182 121.09C80.8849 121.077 81.0649 121.063 81.2582 121.05C81.4515 121.03 81.6249 121.02 81.7782 121.02H83.3382V122H79.0382ZM86.3452 122.12C85.6785 122.12 85.1518 121.837 84.7652 121.27C84.3785 120.697 84.1852 119.87 84.1852 118.79C84.1852 117.71 84.3785 116.897 84.7652 116.35C85.1518 115.797 85.6785 115.52 86.3452 115.52C87.0118 115.52 87.5385 115.797 87.9252 116.35C88.3118 116.903 88.5052 117.717 88.5052 118.79C88.5052 119.87 88.3118 120.697 87.9252 121.27C87.5385 121.837 87.0118 122.12 86.3452 122.12ZM86.3452 121.22C86.4985 121.22 86.6385 121.18 86.7652 121.1C86.8985 121.013 87.0118 120.873 87.1052 120.68C87.1985 120.487 87.2718 120.237 87.3252 119.93C87.3785 119.623 87.4052 119.243 87.4052 118.79C87.4052 118.343 87.3785 117.97 87.3252 117.67C87.2718 117.363 87.1985 117.117 87.1052 116.93C87.0118 116.743 86.8985 116.613 86.7652 116.54C86.6385 116.46 86.4985 116.42 86.3452 116.42C86.1918 116.42 86.0485 116.46 85.9152 116.54C85.7885 116.613 85.6785 116.743 85.5852 116.93C85.4918 117.117 85.4185 117.363 85.3652 117.67C85.3118 117.97 85.2852 118.343 85.2852 118.79C85.2852 119.243 85.3118 119.623 85.3652 119.93C85.4185 120.237 85.4918 120.487 85.5852 120.68C85.6785 120.873 85.7885 121.013 85.9152 121.1C86.0485 121.18 86.1918 121.22 86.3452 121.22ZM89.2921 122V121.33C89.7321 120.903 90.1288 120.51 90.4821 120.15C90.8421 119.79 91.1454 119.457 91.3921 119.15C91.6454 118.843 91.8388 118.557 91.9721 118.29C92.1054 118.023 92.1721 117.77 92.1721 117.53C92.1721 117.19 92.0821 116.923 91.9021 116.73C91.7221 116.53 91.4621 116.43 91.1221 116.43C90.8754 116.43 90.6488 116.5 90.4421 116.64C90.2421 116.78 90.0554 116.947 89.8821 117.14L89.2421 116.5C89.5354 116.187 89.8354 115.947 90.1421 115.78C90.4554 115.607 90.8321 115.52 91.2721 115.52C91.5788 115.52 91.8554 115.567 92.1021 115.66C92.3488 115.753 92.5588 115.887 92.7321 116.06C92.9054 116.227 93.0388 116.43 93.1321 116.67C93.2321 116.91 93.2821 117.177 93.2821 117.47C93.2821 117.75 93.2188 118.037 93.0921 118.33C92.9721 118.617 92.8054 118.91 92.5921 119.21C92.3854 119.503 92.1421 119.807 91.8621 120.12C91.5821 120.433 91.2854 120.757 90.9721 121.09C91.1388 121.077 91.3188 121.063 91.5121 121.05C91.7054 121.03 91.8788 121.02 92.0321 121.02H93.5921V122H89.2921ZM94.7791 122V121.06H96.1991V116.88H95.0291V116.16C95.3491 116.1 95.6224 116.03 95.8491 115.95C96.0824 115.863 96.2991 115.76 96.4991 115.64H97.3591V121.06H98.6091V122H94.7791Z" fill="white"/>
<path d="M33.101 185.324C32.237 185.324 31.436 185.216 30.698 185C29.978 184.766 29.348 184.442 28.808 184.028C28.286 183.614 27.872 183.119 27.566 182.543C27.278 181.967 27.134 181.328 27.134 180.626C27.134 179.582 27.413 178.727 27.971 178.061C28.547 177.395 29.24 176.846 30.05 176.414V176.306C29.384 175.802 28.835 175.235 28.403 174.605C27.971 173.957 27.755 173.174 27.755 172.256C27.755 171.536 27.89 170.888 28.16 170.312C28.43 169.718 28.808 169.214 29.294 168.8C29.78 168.386 30.356 168.071 31.022 167.855C31.706 167.639 32.444 167.531 33.236 167.531C34.01 167.531 34.721 167.648 35.369 167.882C36.017 168.098 36.566 168.413 37.016 168.827C37.466 169.223 37.817 169.718 38.069 170.312C38.321 170.888 38.447 171.527 38.447 172.229C38.447 173.057 38.222 173.795 37.772 174.443C37.322 175.073 36.8 175.586 36.206 175.982V176.09C37.034 176.54 37.736 177.116 38.312 177.818C38.888 178.52 39.176 179.438 39.176 180.572C39.176 181.256 39.032 181.886 38.744 182.462C38.456 183.038 38.042 183.542 37.502 183.974C36.98 184.388 36.341 184.721 35.585 184.973C34.847 185.207 34.019 185.324 33.101 185.324ZM34.181 175.01C34.883 174.2 35.234 173.363 35.234 172.499C35.234 171.833 35.045 171.302 34.667 170.906C34.307 170.492 33.803 170.285 33.155 170.285C32.633 170.285 32.183 170.447 31.805 170.771C31.427 171.095 31.238 171.59 31.238 172.256C31.238 172.958 31.508 173.507 32.048 173.903C32.588 174.299 33.299 174.668 34.181 175.01ZM33.182 182.57C33.848 182.57 34.397 182.399 34.829 182.057C35.261 181.697 35.477 181.157 35.477 180.437C35.477 180.059 35.387 179.735 35.207 179.465C35.045 179.195 34.802 178.952 34.478 178.736C34.154 178.502 33.767 178.286 33.317 178.088C32.885 177.89 32.399 177.674 31.859 177.44C31.481 177.8 31.166 178.214 30.914 178.682C30.662 179.15 30.536 179.645 30.536 180.167C30.536 180.923 30.797 181.517 31.319 181.949C31.841 182.363 32.462 182.57 33.182 182.57ZM47.0686 175.766C47.5186 175.766 47.9686 175.64 48.4186 175.388C48.8866 175.118 49.2916 174.677 49.6336 174.065C49.4536 172.715 49.1116 171.788 48.6076 171.284C48.1216 170.762 47.5726 170.501 46.9606 170.501C46.3846 170.501 45.8806 170.726 45.4486 171.176C45.0166 171.608 44.8006 172.31 44.8006 173.282C44.8006 174.2 45.0166 174.848 45.4486 175.226C45.8806 175.586 46.4206 175.766 47.0686 175.766ZM46.4476 185.324C45.3136 185.324 44.3236 185.117 43.4776 184.703C42.6496 184.289 41.9656 183.812 41.4256 183.272L43.5316 180.896C43.8196 181.22 44.2066 181.508 44.6926 181.76C45.1786 181.994 45.6736 182.111 46.1776 182.111C46.6636 182.111 47.1136 182.021 47.5276 181.841C47.9416 181.661 48.3016 181.364 48.6076 180.95C48.9316 180.518 49.1836 179.969 49.3636 179.303C49.5616 178.619 49.6786 177.773 49.7146 176.765C49.4986 177.053 49.2466 177.314 48.9586 177.548C48.6706 177.764 48.3736 177.953 48.0676 178.115C47.7616 178.259 47.4556 178.376 47.1496 178.466C46.8436 178.538 46.5556 178.574 46.2856 178.574C45.5476 178.574 44.8636 178.466 44.2336 178.25C43.6216 178.034 43.0906 177.71 42.6406 177.278C42.1906 176.846 41.8306 176.297 41.5606 175.631C41.3086 174.965 41.1826 174.182 41.1826 173.282C41.1826 172.4 41.3356 171.608 41.6416 170.906C41.9476 170.186 42.3526 169.574 42.8566 169.07C43.3786 168.566 43.9816 168.188 44.6656 167.936C45.3676 167.666 46.1056 167.531 46.8796 167.531C47.7076 167.531 48.5086 167.693 49.2826 168.017C50.0746 168.341 50.7676 168.845 51.3616 169.529C51.9736 170.213 52.4596 171.095 52.8196 172.175C53.1976 173.237 53.3866 174.524 53.3866 176.036C53.3866 177.638 53.1886 179.024 52.7926 180.194C52.4146 181.364 51.9016 182.327 51.2536 183.083C50.6236 183.839 49.8856 184.406 49.0396 184.784C48.2116 185.144 47.3476 185.324 46.4476 185.324ZM62.4673 185V180.896H55.0423V178.169L61.3063 167.855H66.1663V177.872H68.1373V180.896H66.1663V185H62.4673ZM58.8493 177.872H62.4673V175.091C62.4673 174.533 62.4853 173.894 62.5213 173.174C62.5573 172.436 62.5933 171.797 62.6293 171.257H62.5213C62.3053 171.725 62.0803 172.202 61.8463 172.688C61.6123 173.174 61.3693 173.66 61.1173 174.146L58.8493 177.872ZM75.3549 185.324C73.9509 185.324 72.7629 185.108 71.7909 184.676C70.8189 184.226 70.0179 183.632 69.3879 182.894L71.2239 180.383C71.7459 180.887 72.3129 181.301 72.9249 181.625C73.5549 181.949 74.2389 182.111 74.9769 182.111C75.8229 182.111 76.4979 181.94 77.0019 181.598C77.5059 181.238 77.7579 180.734 77.7579 180.086C77.7579 179.708 77.6859 179.366 77.5419 179.06C77.4159 178.754 77.1819 178.502 76.8399 178.304C76.4979 178.088 76.0299 177.926 75.4359 177.818C74.8419 177.692 74.0769 177.629 73.1409 177.629V174.821C73.9149 174.821 74.5539 174.767 75.0579 174.659C75.5799 174.551 75.9939 174.398 76.2999 174.2C76.6239 173.984 76.8489 173.741 76.9749 173.471C77.1189 173.183 77.1909 172.868 77.1909 172.526C77.1909 171.932 77.0109 171.473 76.6509 171.149C76.2909 170.807 75.7689 170.636 75.0849 170.636C74.4729 170.636 73.9149 170.771 73.4109 171.041C72.9249 171.311 72.4119 171.68 71.8719 172.148L69.8739 169.718C70.6659 169.034 71.4939 168.503 72.3579 168.125C73.2399 167.729 74.2119 167.531 75.2739 167.531C76.1559 167.531 76.9569 167.639 77.6769 167.855C78.4149 168.053 79.0359 168.359 79.5399 168.773C80.0619 169.169 80.4669 169.655 80.7549 170.231C81.0429 170.807 81.1869 171.473 81.1869 172.229C81.1869 173.129 80.9349 173.894 80.4309 174.524C79.9449 175.136 79.2429 175.64 78.3249 176.036V176.144C79.3149 176.432 80.1249 176.927 80.7549 177.629C81.4029 178.313 81.7269 179.213 81.7269 180.329C81.7269 181.121 81.5559 181.832 81.2139 182.462C80.8719 183.074 80.4129 183.596 79.8369 184.028C79.2609 184.442 78.5859 184.766 77.8119 185C77.0379 185.216 76.2189 185.324 75.3549 185.324ZM90.6456 185.324C89.8176 185.324 89.0076 185.162 88.2156 184.838C87.4416 184.514 86.7486 184.01 86.1366 183.326C85.5426 182.642 85.0656 181.769 84.7056 180.707C84.3456 179.627 84.1656 178.331 84.1656 176.819C84.1656 175.217 84.3546 173.831 84.7326 172.661C85.1286 171.491 85.6416 170.528 86.2716 169.772C86.9196 169.016 87.6576 168.458 88.4856 168.098C89.3316 167.72 90.2046 167.531 91.1046 167.531C92.2386 167.531 93.2196 167.738 94.0476 168.152C94.8756 168.548 95.5596 169.025 96.0996 169.583L94.0206 171.959C93.7146 171.635 93.3186 171.356 92.8326 171.122C92.3466 170.87 91.8516 170.744 91.3476 170.744C90.8796 170.744 90.4386 170.834 90.0246 171.014C89.6106 171.194 89.2416 171.5 88.9176 171.932C88.6116 172.346 88.3596 172.895 88.1616 173.579C87.9636 174.263 87.8466 175.1 87.8106 176.09C88.0266 175.802 88.2786 175.55 88.5666 175.334C88.8546 175.1 89.1516 174.911 89.4576 174.767C89.7636 174.605 90.0696 174.488 90.3756 174.416C90.6816 174.326 90.9696 174.281 91.2396 174.281C91.9776 174.281 92.6526 174.389 93.2646 174.605C93.8946 174.821 94.4346 175.145 94.8846 175.577C95.3526 176.009 95.7126 176.558 95.9646 177.224C96.2166 177.89 96.3426 178.673 96.3426 179.573C96.3426 180.473 96.1896 181.274 95.8836 181.976C95.5776 182.678 95.1636 183.281 94.6416 183.785C94.1376 184.289 93.5346 184.676 92.8326 184.946C92.1486 185.198 91.4196 185.324 90.6456 185.324ZM90.5646 182.354C91.1586 182.354 91.6626 182.138 92.0766 181.706C92.5086 181.256 92.7246 180.545 92.7246 179.573C92.7246 178.655 92.5086 178.016 92.0766 177.656C91.6626 177.278 91.1316 177.089 90.4836 177.089C90.0336 177.089 89.5746 177.224 89.1066 177.494C88.6566 177.746 88.2516 178.178 87.8916 178.79C87.9816 179.474 88.1166 180.041 88.2966 180.491C88.4766 180.941 88.6836 181.31 88.9176 181.598C89.1516 181.868 89.4036 182.066 89.6736 182.192C89.9616 182.3 90.2586 182.354 90.5646 182.354ZM104.808 185V167.396H108.777V181.652H115.743V185H104.808Z" fill="white"/>
</g>
<defs>
<filter id="filter0_d" x="0" y="0" width="347" height="215" filterUnits="userSpaceOnUse" color-interpolation-filters="sRGB">
<feFlood flood-opacity="0" result="BackgroundImageFix"/>
<feColorMatrix in="SourceAlpha" type="matrix" values="0 0 0 0 0 0 0 0 0 0 0 0 0 0 0 0 0 0 127 0"/>
<feOffset dx="3" dy="-1"/>
<feGaussianBlur stdDeviation="7"/>
<feColorMatrix type="matrix" values="0 0 0 0 0 0 0 0 0 0 0 0 0 0 0 0 0 0 0.25 0"/>
<feBlend mode="normal" in2="BackgroundImageFix" result="effect1_dropShadow"/>
<feBlend mode="normal" in="SourceGraphic" in2="effect1_dropShadow" result="shape"/>
</filter>
<linearGradient id="paint0_linear" x1="11" y1="109" x2="330" y2="109" gradientUnits="userSpaceOnUse">
<stop stop-color="#222120"/>
<stop offset="1" stop-color="#2E2D2B"/>
</linearGradient>
</defs>
</svg>
