<svg width="20" height="13" viewBox="0 0 20 13" fill="none" xmlns="http://www.w3.org/2000/svg">
<path d="M0.154982 5.99725C0.630254 5.2919 1.12831 4.65049 1.64428 4.07302C3.97831 1.46543 6.74856 0.072715 9.60507 0.00277952C12.4551 -0.0671559 15.3783 1.18169 18.02 3.85722C18.6515 4.49663 19.2619 5.20997 19.8495 6.00324C20.0383 6.259 20.048 6.63666 19.8869 6.90441C19.2147 8.06933 18.4415 9.06641 17.5968 9.89365C15.4825 11.9657 12.9141 12.9848 10.3115 13.0008C7.71864 13.0148 5.09325 12.0297 2.85687 10.0895C1.8575 9.22227 0.934623 8.16524 0.125685 6.92239C-0.0549837 6.64265 -0.0370796 6.24901 0.154982 5.99725ZM10.0006 5.2879C10.0966 5.2879 10.191 5.30588 10.2789 5.33586C10.204 5.43576 10.1601 5.56964 10.1601 5.71551C10.1601 6.02722 10.3652 6.27899 10.6191 6.27899C10.7444 6.27899 10.8567 6.21904 10.9397 6.11913C10.9723 6.23902 10.9886 6.36691 10.9886 6.49878C10.9886 7.16817 10.5459 7.71166 10.0006 7.71166C9.45533 7.71166 9.01261 7.16817 9.01261 6.49878C9.01261 5.8314 9.45533 5.2879 10.0006 5.2879ZM10.0006 2.16279C10.9755 2.16279 11.8594 2.64834 12.499 3.43361C13.1387 4.21889 13.5342 5.30189 13.5342 6.50078C13.5342 7.69768 13.1387 8.78268 12.499 9.56795C11.8594 10.3532 10.9772 10.8388 10.0006 10.8388C9.02563 10.8388 8.14182 10.3532 7.50216 9.56795C6.8625 8.78268 6.46698 7.69967 6.46698 6.50078C6.46698 5.30389 6.8625 4.21889 7.50216 3.43361C8.14182 2.64834 9.02563 2.16279 10.0006 2.16279ZM11.7015 4.41271C11.2669 3.8792 10.6647 3.54751 10.0006 3.54751C9.33651 3.54751 8.73429 3.8772 8.29971 4.41271C7.86513 4.94622 7.59494 5.68553 7.59494 6.50078C7.59494 7.31603 7.8635 8.05535 8.29971 8.58885C8.73429 9.12236 9.33651 9.45406 10.0006 9.45406C10.6647 9.45406 11.2669 9.12436 11.7015 8.58885C12.1361 8.05535 12.4062 7.31603 12.4062 6.50078C12.4062 5.68553 12.1361 4.94622 11.7015 4.41271ZM2.42392 5.12205C2.0463 5.54366 1.68171 5.99924 1.3334 6.4848C1.99585 7.42793 2.73317 8.24317 3.52257 8.92854C5.56364 10.6969 7.95139 11.5961 10.3082 11.5841C12.6553 11.5701 14.9714 10.651 16.879 8.78268C17.5301 8.14526 18.1323 7.39596 18.6743 6.53475C18.2202 5.95329 17.7579 5.42777 17.2892 4.95221C14.8656 2.50047 12.2077 1.35753 9.62786 1.41947C7.05456 1.48341 4.54636 2.75024 2.42392 5.12205Z" fill="#A4A4A4"/>
</svg>
