<svg width="61" height="63" viewBox="0 0 61 63" fill="none" xmlns="http://www.w3.org/2000/svg">
<g filter="url(#filter0_d)">
<rect x="8.2666" y="6" width="44.3468" height="47" rx="5" fill="white"/>
</g>
<path d="M24.3865 14.5242V11.7442H23.4415V11.2542H25.9115V11.7442H24.9665V14.5242H24.3865ZM27.5942 14.5842C27.3808 14.5842 27.1858 14.5458 27.0092 14.4692C26.8325 14.3892 26.6808 14.2758 26.5542 14.1292C26.4275 13.9792 26.3292 13.7992 26.2592 13.5892C26.1892 13.3792 26.1542 13.1408 26.1542 12.8742C26.1542 12.6108 26.1892 12.3758 26.2592 12.1692C26.3292 11.9592 26.4275 11.7825 26.5542 11.6392C26.6808 11.4958 26.8325 11.3858 27.0092 11.3092C27.1858 11.2325 27.3808 11.1942 27.5942 11.1942C27.8075 11.1942 28.0025 11.2325 28.1792 11.3092C28.3558 11.3858 28.5075 11.4958 28.6342 11.6392C28.7642 11.7825 28.8642 11.9592 28.9342 12.1692C29.0042 12.3758 29.0392 12.6108 29.0392 12.8742C29.0392 13.1408 29.0042 13.3792 28.9342 13.5892C28.8642 13.7992 28.7642 13.9792 28.6342 14.1292C28.5075 14.2758 28.3558 14.3892 28.1792 14.4692C28.0025 14.5458 27.8075 14.5842 27.5942 14.5842ZM27.5942 14.0792C27.7242 14.0792 27.8408 14.0508 27.9442 13.9942C28.0475 13.9375 28.1358 13.8575 28.2092 13.7542C28.2825 13.6475 28.3392 13.5208 28.3792 13.3742C28.4192 13.2242 28.4392 13.0575 28.4392 12.8742C28.4392 12.5075 28.3625 12.2208 28.2092 12.0142C28.0592 11.8042 27.8542 11.6992 27.5942 11.6992C27.3342 11.6992 27.1275 11.8042 26.9742 12.0142C26.8242 12.2208 26.7492 12.5075 26.7492 12.8742C26.7492 13.0575 26.7692 13.2242 26.8092 13.3742C26.8492 13.5208 26.9058 13.6475 26.9792 13.7542C27.0525 13.8575 27.1408 13.9375 27.2442 13.9942C27.3475 14.0508 27.4642 14.0792 27.5942 14.0792ZM29.6933 14.5242V11.2542H30.2733V14.5242H29.6933ZM31.1045 14.5242V11.2542H31.6845V14.0342H33.0445V14.5242H31.1045ZM33.6142 14.5242V11.2542H35.5842V11.7442H34.1942V12.5792H35.3692V13.0692H34.1942V14.0342H35.6342V14.5242H33.6142ZM36.9646 14.5242V11.7442H36.0196V11.2542H38.4896V11.7442H37.5446V14.5242H36.9646Z" fill="black"/>
<path d="M26.2891 45.7698C25.8731 45.7698 25.5265 45.7005 25.2491 45.5618C24.9718 45.4232 24.7425 45.2525 24.5611 45.0498L25.0011 44.4578C25.1558 44.6125 25.3318 44.7458 25.5291 44.8578C25.7265 44.9645 25.9531 45.0178 26.2091 45.0178C26.4865 45.0178 26.7105 44.9512 26.8811 44.8178C27.0571 44.6792 27.1451 44.4898 27.1451 44.2498C27.1451 44.1165 27.1211 43.9965 27.0731 43.8898C27.0251 43.7832 26.9425 43.6925 26.8251 43.6178C26.7131 43.5432 26.5611 43.4872 26.3691 43.4498C26.1771 43.4072 25.9371 43.3858 25.6491 43.3858V42.7138C25.8998 42.7138 26.1078 42.6952 26.2731 42.6578C26.4438 42.6152 26.5798 42.5592 26.6811 42.4898C26.7878 42.4152 26.8625 42.3272 26.9051 42.2258C26.9531 42.1245 26.9771 42.0152 26.9771 41.8978C26.9771 41.6845 26.9105 41.5192 26.7771 41.4018C26.6438 41.2792 26.4598 41.2178 26.2251 41.2178C26.0225 41.2178 25.8385 41.2632 25.6731 41.3538C25.5131 41.4392 25.3558 41.5538 25.2011 41.6978L24.7291 41.1298C24.9478 40.9378 25.1798 40.7832 25.4251 40.6658C25.6758 40.5485 25.9531 40.4898 26.2571 40.4898C26.5025 40.4898 26.7265 40.5192 26.9291 40.5778C27.1318 40.6365 27.3051 40.7245 27.4491 40.8418C27.5931 40.9538 27.7051 41.0952 27.7851 41.2658C27.8651 41.4312 27.9051 41.6205 27.9051 41.8338C27.9051 42.1218 27.8251 42.3618 27.6651 42.5538C27.5105 42.7458 27.2945 42.8952 27.0171 43.0018V43.0338C27.3211 43.1138 27.5718 43.2605 27.7691 43.4738C27.9718 43.6872 28.0731 43.9618 28.0731 44.2978C28.0731 44.5325 28.0251 44.7405 27.9291 44.9218C27.8385 45.1032 27.7105 45.2578 27.5451 45.3858C27.3851 45.5085 27.1958 45.6045 26.9771 45.6738C26.7638 45.7378 26.5345 45.7698 26.2891 45.7698ZM29.8147 45.6738C29.836 45.2205 29.876 44.8072 29.9347 44.4338C29.9934 44.0552 30.076 43.6952 30.1827 43.3538C30.2947 43.0125 30.436 42.6818 30.6067 42.3618C30.7774 42.0365 30.9854 41.7032 31.2307 41.3618H28.8227V40.5858H32.2387V41.1458C31.94 41.5138 31.6974 41.8658 31.5107 42.2018C31.3294 42.5325 31.1854 42.8738 31.0787 43.2258C30.972 43.5725 30.8947 43.9432 30.8467 44.3378C30.804 44.7325 30.772 45.1778 30.7507 45.6738H29.8147ZM34.7723 45.7698C34.5216 45.7698 34.2843 45.7218 34.0603 45.6258C33.8363 45.5245 33.6389 45.3725 33.4683 45.1698C33.3029 44.9672 33.1696 44.7085 33.0683 44.3938C32.9723 44.0792 32.9243 43.7085 32.9243 43.2818C32.9243 42.7858 32.9803 42.3618 33.0923 42.0098C33.2043 41.6578 33.3509 41.3698 33.5323 41.1458C33.7189 40.9218 33.9323 40.7565 34.1723 40.6498C34.4123 40.5432 34.6629 40.4898 34.9243 40.4898C35.2336 40.4898 35.4976 40.5458 35.7163 40.6578C35.9403 40.7698 36.1296 40.9058 36.2843 41.0658L35.7883 41.6258C35.6976 41.5138 35.5776 41.4232 35.4283 41.3538C35.2843 41.2792 35.1349 41.2418 34.9803 41.2418C34.8203 41.2418 34.6683 41.2738 34.5243 41.3378C34.3856 41.4018 34.2629 41.5085 34.1563 41.6578C34.0496 41.8018 33.9616 41.9938 33.8923 42.2338C33.8283 42.4738 33.7909 42.7698 33.7803 43.1218C33.9296 42.9352 34.1029 42.7885 34.3003 42.6818C34.5029 42.5752 34.6976 42.5218 34.8843 42.5218C35.1029 42.5218 35.3029 42.5538 35.4843 42.6178C35.6709 42.6818 35.8283 42.7805 35.9563 42.9138C36.0896 43.0418 36.1909 43.2045 36.2603 43.4018C36.3349 43.5992 36.3723 43.8312 36.3723 44.0978C36.3723 44.3538 36.3296 44.5858 36.2443 44.7938C36.1589 44.9965 36.0443 45.1698 35.9003 45.3138C35.7563 45.4578 35.5856 45.5698 35.3883 45.6498C35.1963 45.7298 34.9909 45.7698 34.7723 45.7698ZM34.7563 45.0658C34.9696 45.0658 35.1483 44.9832 35.2923 44.8178C35.4416 44.6525 35.5163 44.4125 35.5163 44.0978C35.5163 43.7938 35.4469 43.5672 35.3083 43.4178C35.1696 43.2685 34.9723 43.1938 34.7163 43.1938C34.5723 43.1938 34.4203 43.2392 34.2603 43.3298C34.1003 43.4152 33.9483 43.5645 33.8043 43.7778C33.8523 44.2312 33.9589 44.5592 34.1243 44.7618C34.2949 44.9645 34.5056 45.0658 34.7563 45.0658Z" fill="black"/>
<path d="M26.6988 49.7218C26.5842 49.7218 26.4868 49.7045 26.4068 49.6698C26.3295 49.6352 26.2655 49.5872 26.2148 49.5258C26.1668 49.4618 26.1308 49.3872 26.1068 49.3018C26.0855 49.2138 26.0748 49.1165 26.0748 49.0098V48.0738H25.7948V47.7298L26.0988 47.7098L26.1548 47.1738H26.5388V47.7098H27.0388V48.0738H26.5388V49.0098C26.5388 49.2392 26.6308 49.3538 26.8148 49.3538C26.8495 49.3538 26.8842 49.3498 26.9188 49.3418C26.9562 49.3338 26.9895 49.3232 27.0188 49.3098L27.0988 49.6498C27.0455 49.6685 26.9842 49.6845 26.9148 49.6978C26.8482 49.7138 26.7762 49.7218 26.6988 49.7218ZM27.4522 49.6738V47.7098H27.9122V49.6738H27.4522ZM27.6842 47.3658C27.6015 47.3658 27.5335 47.3418 27.4802 47.2938C27.4268 47.2458 27.4002 47.1832 27.4002 47.1058C27.4002 47.0285 27.4268 46.9658 27.4802 46.9178C27.5335 46.8672 27.6015 46.8418 27.6842 46.8418C27.7668 46.8418 27.8348 46.8672 27.8882 46.9178C27.9415 46.9658 27.9682 47.0285 27.9682 47.1058C27.9682 47.1832 27.9415 47.2458 27.8882 47.2938C27.8348 47.3418 27.7668 47.3658 27.6842 47.3658ZM28.499 49.6738V47.7098H28.879L28.911 47.9778H28.927C29.0097 47.8898 29.099 47.8152 29.195 47.7538C29.2937 47.6925 29.4044 47.6618 29.527 47.6618C29.671 47.6618 29.7857 47.6925 29.871 47.7538C29.959 47.8152 30.0257 47.9018 30.071 48.0138C30.1644 47.9125 30.2617 47.8285 30.363 47.7618C30.4644 47.6952 30.5777 47.6618 30.703 47.6618C30.911 47.6618 31.0644 47.7298 31.163 47.8658C31.2617 47.9992 31.311 48.1912 31.311 48.4418V49.6738H30.847V48.5018C30.847 48.3392 30.8217 48.2245 30.771 48.1578C30.723 48.0912 30.6484 48.0578 30.547 48.0578C30.4244 48.0578 30.287 48.1392 30.135 48.3018V49.6738H29.675V48.5018C29.675 48.3392 29.6497 48.2245 29.599 48.1578C29.551 48.0912 29.475 48.0578 29.371 48.0578C29.2484 48.0578 29.111 48.1392 28.959 48.3018V49.6738H28.499ZM32.7101 49.7218C32.5741 49.7218 32.4475 49.6992 32.3301 49.6538C32.2128 49.6058 32.1101 49.5378 32.0221 49.4498C31.9341 49.3618 31.8648 49.2552 31.8141 49.1298C31.7661 49.0018 31.7421 48.8565 31.7421 48.6938C31.7421 48.5338 31.7675 48.3898 31.8181 48.2618C31.8688 48.1338 31.9355 48.0258 32.0181 47.9378C32.1035 47.8498 32.2008 47.7818 32.3101 47.7338C32.4195 47.6858 32.5315 47.6618 32.6461 47.6618C32.7795 47.6618 32.8968 47.6845 32.9981 47.7298C33.0995 47.7752 33.1835 47.8392 33.2501 47.9218C33.3195 48.0045 33.3715 48.1032 33.4061 48.2178C33.4408 48.3325 33.4581 48.4578 33.4581 48.5938C33.4581 48.6392 33.4555 48.6818 33.4501 48.7218C33.4475 48.7618 33.4435 48.7938 33.4381 48.8178H32.1901C32.2115 48.9938 32.2728 49.1298 32.3741 49.2258C32.4781 49.3192 32.6101 49.3658 32.7701 49.3658C32.8555 49.3658 32.9341 49.3538 33.0061 49.3298C33.0808 49.3032 33.1541 49.2672 33.2261 49.2218L33.3821 49.5098C33.2888 49.5712 33.1848 49.6218 33.0701 49.6618C32.9555 49.7018 32.8355 49.7218 32.7101 49.7218ZM32.1861 48.5058H33.0581C33.0581 48.3538 33.0248 48.2352 32.9581 48.1498C32.8941 48.0618 32.7941 48.0178 32.6581 48.0178C32.5408 48.0178 32.4381 48.0592 32.3501 48.1418C32.2621 48.2245 32.2075 48.3458 32.1861 48.5058ZM34.4455 49.7218C34.3095 49.7218 34.1748 49.6965 34.0415 49.6458C33.9108 49.5925 33.7975 49.5272 33.7015 49.4498L33.9175 49.1538C34.0055 49.2232 34.0921 49.2778 34.1775 49.3178C34.2655 49.3552 34.3601 49.3738 34.4615 49.3738C34.5681 49.3738 34.6468 49.3525 34.6975 49.3098C34.7481 49.2645 34.7735 49.2072 34.7735 49.1378C34.7735 49.0978 34.7615 49.0632 34.7375 49.0338C34.7135 49.0018 34.6815 48.9738 34.6415 48.9498C34.6015 48.9258 34.5561 48.9045 34.5055 48.8858C34.4548 48.8645 34.4041 48.8432 34.3535 48.8218C34.2895 48.7978 34.2241 48.7698 34.1575 48.7378C34.0908 48.7058 34.0308 48.6672 33.9775 48.6218C33.9268 48.5765 33.8841 48.5245 33.8495 48.4658C33.8175 48.4045 33.8015 48.3325 33.8015 48.2498C33.8015 48.0765 33.8655 47.9352 33.9935 47.8258C34.1215 47.7165 34.2961 47.6618 34.5175 47.6618C34.6535 47.6618 34.7761 47.6858 34.8855 47.7338C34.9948 47.7818 35.0895 47.8365 35.1695 47.8978L34.9575 48.1778C34.8881 48.1272 34.8175 48.0872 34.7455 48.0578C34.6761 48.0258 34.6028 48.0098 34.5255 48.0098C34.4268 48.0098 34.3535 48.0312 34.3055 48.0738C34.2601 48.1138 34.2375 48.1645 34.2375 48.2258C34.2375 48.2658 34.2481 48.3005 34.2695 48.3298C34.2935 48.3565 34.3241 48.3805 34.3615 48.4018C34.3988 48.4232 34.4415 48.4432 34.4895 48.4618C34.5401 48.4805 34.5921 48.4992 34.6455 48.5178C34.7121 48.5418 34.7788 48.5698 34.8455 48.6018C34.9121 48.6312 34.9721 48.6685 35.0255 48.7138C35.0815 48.7592 35.1255 48.8152 35.1575 48.8818C35.1921 48.9458 35.2095 49.0232 35.2095 49.1138C35.2095 49.1992 35.1921 49.2792 35.1575 49.3538C35.1255 49.4258 35.0775 49.4898 35.0135 49.5458C34.9495 49.5992 34.8695 49.6418 34.7735 49.6738C34.6775 49.7058 34.5681 49.7218 34.4455 49.7218Z" fill="#787878"/>
<g clip-path="url(#clip0)">
<path d="M27.9461 23.2513C27.9461 23.1198 28.0485 23.0143 28.1735 23.0143C28.2997 23.0143 28.4009 23.1211 28.4009 23.2513V27.5911C28.4009 27.7227 28.2984 27.8281 28.1735 27.8281H25.4774C25.3524 27.8294 25.25 27.7227 25.25 27.5924V20.5104C25.25 20.3711 25.305 20.2435 25.3937 20.1497L25.3949 20.1484C25.4849 20.0573 25.6061 20 25.741 20H27.9111C28.0448 20 28.1685 20.0573 28.2572 20.151C28.3459 20.2435 28.4009 20.3711 28.4009 20.5117V21.1133C28.4009 21.2448 28.2984 21.3503 28.1735 21.3503C28.0473 21.3503 27.9461 21.2435 27.9461 21.1133V20.5104C27.9461 20.5013 27.9424 20.4922 27.9361 20.4844C27.9299 20.4779 27.9211 20.474 27.9111 20.474H25.741C25.731 20.474 25.7223 20.4779 25.716 20.4844L25.7148 20.4857C25.7085 20.4922 25.7048 20.5013 25.7048 20.5117V27.3555H27.9461V23.2513ZM27.9449 33.0052L25.2762 27.7018C25.2188 27.5859 25.2612 27.444 25.3724 27.3828C25.4062 27.3646 25.4424 27.3555 25.4774 27.3555V27.3542H37.2875C37.4137 27.3542 37.5149 27.4609 37.5149 27.5911C37.5149 27.6003 37.5149 27.6094 37.5136 27.6185C37.4499 30.4492 36.1181 31.2461 34.9974 31.9154C34.3428 32.3073 33.7693 32.6497 33.6619 33.375L33.6606 33.3815C33.6194 33.6654 33.6419 33.9909 33.7281 34.3594C33.818 34.7435 33.9767 35.1758 34.2078 35.6563C34.2641 35.7734 34.2178 35.9154 34.1054 35.974C34.0729 35.9909 34.0379 35.9987 34.0042 35.9987H26.8754C26.7492 35.9987 26.648 35.8919 26.648 35.7617C26.648 35.7161 26.6605 35.6732 26.683 35.6367L27.9449 33.0052ZM25.8534 27.8294L28.4009 32.8932C28.4333 32.9583 28.4358 33.0378 28.4021 33.1081L27.2427 35.526H33.6444C33.482 35.1497 33.3633 34.7982 33.2871 34.4727C33.1859 34.0404 33.1609 33.6536 33.2109 33.3125L33.2121 33.3047C33.3533 32.3542 34.0154 31.9583 34.7713 31.5065C35.7608 30.9154 36.9314 30.2148 37.0526 27.8307H25.8534V27.8294ZM28.1997 33.2396C28.0735 33.2396 27.9723 33.1328 27.9723 33.0026C27.9723 32.8711 28.0748 32.7656 28.1997 32.7656H30.6847C30.8109 32.7656 30.9121 32.8724 30.9121 33.0026C30.9121 33.1341 30.8096 33.2396 30.6847 33.2396H28.1997ZM28.3996 27.6276C28.3809 27.7565 28.2647 27.8464 28.141 27.8268C28.0173 27.8073 27.9311 27.6862 27.9498 27.5573C27.9861 27.3125 28.0448 27.0911 28.1273 26.8971C28.2135 26.6953 28.3247 26.5247 28.4608 26.3854C28.9031 25.9349 29.4653 25.9453 30.0025 25.9557C30.05 25.957 30.0962 25.957 30.2174 25.957H35.0849C36.2393 25.9492 37.5186 25.9401 37.5124 27.6497C37.5124 27.7799 37.4112 27.8854 37.2862 27.8854C37.1613 27.8854 37.0601 27.7799 37.0601 27.6497C37.0651 26.4154 36.0257 26.4232 35.0886 26.4297C34.9475 26.431 34.9512 26.4323 34.8675 26.4323H30.2187L29.9963 26.4284C29.5515 26.4206 29.0855 26.4115 28.7782 26.7253C28.682 26.8229 28.6045 26.944 28.542 27.0885C28.4771 27.2396 28.4296 27.4193 28.3996 27.6276ZM27.1653 21.4544C27.5188 21.4544 27.8049 21.7526 27.8049 22.1211C27.8049 22.4896 27.5188 22.7878 27.1653 22.7878C26.8117 22.7878 26.5256 22.4896 26.5256 22.1211C26.5256 21.7526 26.8129 21.4544 27.1653 21.4544ZM27.8049 22.3581C27.6787 22.3581 27.5775 22.2513 27.5775 22.1211C27.5775 21.9896 27.68 21.8841 27.8049 21.8841H29.3391C29.4653 21.8841 29.5665 21.9909 29.5665 22.1211C29.5665 22.2526 29.4641 22.3581 29.3391 22.3581H27.8049Z" fill="black"/>
</g>
<defs>
<filter id="filter0_d" x="0.266602" y="0" width="60.3468" height="63" filterUnits="userSpaceOnUse" color-interpolation-filters="sRGB">
<feFlood flood-opacity="0" result="BackgroundImageFix"/>
<feColorMatrix in="SourceAlpha" type="matrix" values="0 0 0 0 0 0 0 0 0 0 0 0 0 0 0 0 0 0 127 0"/>
<feOffset dy="2"/>
<feGaussianBlur stdDeviation="4"/>
<feColorMatrix type="matrix" values="0 0 0 0 0 0 0 0 0 0 0 0 0 0 0 0 0 0 0.2 0"/>
<feBlend mode="normal" in2="BackgroundImageFix" result="effect1_dropShadow"/>
<feBlend mode="normal" in="SourceGraphic" in2="effect1_dropShadow" result="shape"/>
</filter>
<clipPath id="clip0">
<rect width="12.2661" height="16" fill="white" transform="translate(25.25 20)"/>
</clipPath>
</defs>
</svg>
