<svg width="61" height="63" viewBox="0 0 61 63" fill="none" xmlns="http://www.w3.org/2000/svg">
<g filter="url(#filter0_d)">
<rect x="8.14551" y="6" width="44.3468" height="47" rx="5" fill="white"/>
</g>
<path d="M22.2635 14.5242V11.7442H21.3185V11.2542H23.7885V11.7442H22.8435V14.5242H22.2635ZM23.7862 13.4742V13.0542H24.9762V13.4742H23.7862ZM26.4452 14.5842C26.2252 14.5842 26.0119 14.5425 25.8052 14.4592C25.6019 14.3758 25.4219 14.2575 25.2652 14.1042L25.6052 13.7092C25.7219 13.8192 25.8552 13.9092 26.0052 13.9792C26.1552 14.0458 26.3052 14.0792 26.4552 14.0792C26.6419 14.0792 26.7835 14.0408 26.8802 13.9642C26.9769 13.8875 27.0252 13.7858 27.0252 13.6592C27.0252 13.5925 27.0119 13.5358 26.9852 13.4892C26.9619 13.4425 26.9269 13.4025 26.8802 13.3692C26.8369 13.3325 26.7835 13.2992 26.7202 13.2692C26.6602 13.2392 26.5935 13.2092 26.5202 13.1792L26.0702 12.9842C25.9902 12.9508 25.9102 12.9092 25.8302 12.8592C25.7535 12.8092 25.6835 12.7492 25.6202 12.6792C25.5569 12.6092 25.5052 12.5275 25.4652 12.4342C25.4285 12.3408 25.4102 12.2342 25.4102 12.1142C25.4102 11.9842 25.4369 11.8642 25.4902 11.7542C25.5469 11.6408 25.6235 11.5425 25.7202 11.4592C25.8169 11.3758 25.9319 11.3108 26.0652 11.2642C26.2019 11.2175 26.3502 11.1942 26.5102 11.1942C26.7002 11.1942 26.8835 11.2325 27.0602 11.3092C27.2369 11.3825 27.3885 11.4825 27.5152 11.6092L27.2202 11.9792C27.1135 11.8925 27.0035 11.8242 26.8902 11.7742C26.7769 11.7242 26.6502 11.6992 26.5102 11.6992C26.3535 11.6992 26.2285 11.7342 26.1352 11.8042C26.0419 11.8708 25.9952 11.9642 25.9952 12.0842C25.9952 12.1475 26.0085 12.2025 26.0352 12.2492C26.0652 12.2925 26.1035 12.3325 26.1502 12.3692C26.2002 12.4025 26.2569 12.4342 26.3202 12.4642C26.3835 12.4908 26.4485 12.5175 26.5152 12.5442L26.9602 12.7292C27.0569 12.7692 27.1452 12.8158 27.2252 12.8692C27.3052 12.9225 27.3735 12.9842 27.4302 13.0542C27.4902 13.1242 27.5369 13.2058 27.5702 13.2992C27.6035 13.3892 27.6202 13.4942 27.6202 13.6142C27.6202 13.7475 27.5935 13.8725 27.5402 13.9892C27.4869 14.1058 27.4085 14.2092 27.3052 14.2992C27.2052 14.3858 27.0819 14.4558 26.9352 14.5092C26.7919 14.5592 26.6285 14.5842 26.4452 14.5842ZM28.2148 14.5242V11.2542H28.7948V12.5692H30.1198V11.2542H30.6998V14.5242H30.1198V13.0742H28.7948V14.5242H28.2148ZM31.5302 14.5242V11.2542H32.1102V14.5242H31.5302ZM32.9414 14.5242V11.2542H34.0464C34.2164 11.2542 34.3747 11.2708 34.5214 11.3042C34.668 11.3375 34.7947 11.3925 34.9014 11.4692C35.008 11.5425 35.0914 11.6408 35.1514 11.7642C35.2147 11.8875 35.2464 12.0408 35.2464 12.2242C35.2464 12.4742 35.1864 12.6758 35.0664 12.8292C34.9497 12.9825 34.793 13.0925 34.5964 13.1592L35.3764 14.5242H34.7264L34.0214 13.2442H33.5214V14.5242H32.9414ZM33.5214 12.7842H33.9864C34.2097 12.7842 34.3797 12.7375 34.4964 12.6442C34.6164 12.5508 34.6764 12.4108 34.6764 12.2242C34.6764 12.0342 34.6164 11.9025 34.4964 11.8292C34.3797 11.7558 34.2097 11.7192 33.9864 11.7192H33.5214V12.7842ZM36.4822 14.5242V11.7442H35.5372V11.2542H38.0072V11.7442H37.0622V14.5242H36.4822Z" fill="black"/>
<path d="M27.7188 45.7698C27.3028 45.7698 26.9562 45.7005 26.6788 45.5618C26.4015 45.4232 26.1722 45.2525 25.9908 45.0498L26.4308 44.4578C26.5855 44.6125 26.7615 44.7458 26.9588 44.8578C27.1562 44.9645 27.3828 45.0178 27.6388 45.0178C27.9162 45.0178 28.1402 44.9512 28.3108 44.8178C28.4868 44.6792 28.5748 44.4898 28.5748 44.2498C28.5748 44.1165 28.5508 43.9965 28.5028 43.8898C28.4548 43.7832 28.3722 43.6925 28.2548 43.6178C28.1428 43.5432 27.9908 43.4872 27.7988 43.4498C27.6068 43.4072 27.3668 43.3858 27.0788 43.3858V42.7138C27.3295 42.7138 27.5375 42.6952 27.7028 42.6578C27.8735 42.6152 28.0095 42.5592 28.1108 42.4898C28.2175 42.4152 28.2922 42.3272 28.3348 42.2258C28.3828 42.1245 28.4068 42.0152 28.4068 41.8978C28.4068 41.6845 28.3402 41.5192 28.2068 41.4018C28.0735 41.2792 27.8895 41.2178 27.6548 41.2178C27.4522 41.2178 27.2682 41.2632 27.1028 41.3538C26.9428 41.4392 26.7855 41.5538 26.6308 41.6978L26.1588 41.1298C26.3775 40.9378 26.6095 40.7832 26.8548 40.6658C27.1055 40.5485 27.3828 40.4898 27.6868 40.4898C27.9322 40.4898 28.1562 40.5192 28.3588 40.5778C28.5615 40.6365 28.7348 40.7245 28.8788 40.8418C29.0228 40.9538 29.1348 41.0952 29.2148 41.2658C29.2948 41.4312 29.3348 41.6205 29.3348 41.8338C29.3348 42.1218 29.2548 42.3618 29.0948 42.5538C28.9402 42.7458 28.7242 42.8952 28.4468 43.0018V43.0338C28.7508 43.1138 29.0015 43.2605 29.1988 43.4738C29.4015 43.6872 29.5028 43.9618 29.5028 44.2978C29.5028 44.5325 29.4548 44.7405 29.3588 44.9218C29.2682 45.1032 29.1402 45.2578 28.9748 45.3858C28.8148 45.5085 28.6255 45.6045 28.4068 45.6738C28.1935 45.7378 27.9642 45.7698 27.7188 45.7698ZM30.2044 45.6738V45.1378C30.5564 44.7965 30.8737 44.4818 31.1564 44.1938C31.4444 43.9058 31.6871 43.6392 31.8844 43.3938C32.0871 43.1485 32.2417 42.9192 32.3484 42.7058C32.4551 42.4925 32.5084 42.2898 32.5084 42.0978C32.5084 41.8258 32.4364 41.6125 32.2924 41.4578C32.1484 41.2978 31.9404 41.2178 31.6684 41.2178C31.4711 41.2178 31.2897 41.2738 31.1244 41.3858C30.9644 41.4978 30.8151 41.6312 30.6764 41.7858L30.1644 41.2738C30.3991 41.0232 30.6391 40.8312 30.8844 40.6978C31.1351 40.5592 31.4364 40.4898 31.7884 40.4898C32.0337 40.4898 32.2551 40.5272 32.4524 40.6018C32.6497 40.6765 32.8177 40.7832 32.9564 40.9218C33.0951 41.0552 33.2017 41.2178 33.2764 41.4098C33.3564 41.6018 33.3964 41.8152 33.3964 42.0498C33.3964 42.2738 33.3457 42.5032 33.2444 42.7378C33.1484 42.9672 33.0151 43.2018 32.8444 43.4418C32.6791 43.6765 32.4844 43.9192 32.2604 44.1698C32.0364 44.4205 31.7991 44.6792 31.5484 44.9458C31.6817 44.9352 31.8257 44.9245 31.9804 44.9138C32.1351 44.8978 32.2737 44.8898 32.3964 44.8898H33.6444V45.6738H30.2044Z" fill="black"/>
<path d="M26.0778 49.7218C25.9631 49.7218 25.8658 49.7045 25.7858 49.6698C25.7084 49.6352 25.6444 49.5872 25.5938 49.5258C25.5458 49.4618 25.5098 49.3872 25.4858 49.3018C25.4644 49.2138 25.4538 49.1165 25.4538 49.0098V48.0738H25.1738V47.7298L25.4778 47.7098L25.5338 47.1738H25.9178V47.7098H26.4178V48.0738H25.9178V49.0098C25.9178 49.2392 26.0098 49.3538 26.1938 49.3538C26.2284 49.3538 26.2631 49.3498 26.2978 49.3418C26.3351 49.3338 26.3684 49.3232 26.3978 49.3098L26.4778 49.6498C26.4244 49.6685 26.3631 49.6845 26.2938 49.6978C26.2271 49.7138 26.1551 49.7218 26.0778 49.7218ZM26.8311 49.6738V47.7098H27.2911V49.6738H26.8311ZM27.0631 47.3658C26.9804 47.3658 26.9124 47.3418 26.8591 47.2938C26.8057 47.2458 26.7791 47.1832 26.7791 47.1058C26.7791 47.0285 26.8057 46.9658 26.8591 46.9178C26.9124 46.8672 26.9804 46.8418 27.0631 46.8418C27.1457 46.8418 27.2137 46.8672 27.2671 46.9178C27.3204 46.9658 27.3471 47.0285 27.3471 47.1058C27.3471 47.1832 27.3204 47.2458 27.2671 47.2938C27.2137 47.3418 27.1457 47.3658 27.0631 47.3658ZM27.8779 49.6738V47.7098H28.2579L28.2899 47.9778H28.3059C28.3886 47.8898 28.4779 47.8152 28.5739 47.7538C28.6726 47.6925 28.7833 47.6618 28.9059 47.6618C29.0499 47.6618 29.1646 47.6925 29.2499 47.7538C29.3379 47.8152 29.4046 47.9018 29.4499 48.0138C29.5433 47.9125 29.6406 47.8285 29.7419 47.7618C29.8433 47.6952 29.9566 47.6618 30.0819 47.6618C30.2899 47.6618 30.4433 47.7298 30.5419 47.8658C30.6406 47.9992 30.6899 48.1912 30.6899 48.4418V49.6738H30.2259V48.5018C30.2259 48.3392 30.2006 48.2245 30.1499 48.1578C30.1019 48.0912 30.0273 48.0578 29.9259 48.0578C29.8033 48.0578 29.6659 48.1392 29.5139 48.3018V49.6738H29.0539V48.5018C29.0539 48.3392 29.0286 48.2245 28.9779 48.1578C28.9299 48.0912 28.8539 48.0578 28.7499 48.0578C28.6273 48.0578 28.4899 48.1392 28.3379 48.3018V49.6738H27.8779ZM32.089 49.7218C31.953 49.7218 31.8264 49.6992 31.709 49.6538C31.5917 49.6058 31.489 49.5378 31.401 49.4498C31.313 49.3618 31.2437 49.2552 31.193 49.1298C31.145 49.0018 31.121 48.8565 31.121 48.6938C31.121 48.5338 31.1464 48.3898 31.197 48.2618C31.2477 48.1338 31.3144 48.0258 31.397 47.9378C31.4824 47.8498 31.5797 47.7818 31.689 47.7338C31.7984 47.6858 31.9104 47.6618 32.025 47.6618C32.1584 47.6618 32.2757 47.6845 32.377 47.7298C32.4784 47.7752 32.5624 47.8392 32.629 47.9218C32.6984 48.0045 32.7504 48.1032 32.785 48.2178C32.8197 48.3325 32.837 48.4578 32.837 48.5938C32.837 48.6392 32.8344 48.6818 32.829 48.7218C32.8264 48.7618 32.8224 48.7938 32.817 48.8178H31.569C31.5904 48.9938 31.6517 49.1298 31.753 49.2258C31.857 49.3192 31.989 49.3658 32.149 49.3658C32.2344 49.3658 32.313 49.3538 32.385 49.3298C32.4597 49.3032 32.533 49.2672 32.605 49.2218L32.761 49.5098C32.6677 49.5712 32.5637 49.6218 32.449 49.6618C32.3344 49.7018 32.2144 49.7218 32.089 49.7218ZM31.565 48.5058H32.437C32.437 48.3538 32.4037 48.2352 32.337 48.1498C32.273 48.0618 32.173 48.0178 32.037 48.0178C31.9197 48.0178 31.817 48.0592 31.729 48.1418C31.641 48.2245 31.5864 48.3458 31.565 48.5058ZM33.8244 49.7218C33.6884 49.7218 33.5537 49.6965 33.4204 49.6458C33.2897 49.5925 33.1764 49.5272 33.0804 49.4498L33.2964 49.1538C33.3844 49.2232 33.471 49.2778 33.5564 49.3178C33.6444 49.3552 33.739 49.3738 33.8404 49.3738C33.947 49.3738 34.0257 49.3525 34.0764 49.3098C34.127 49.2645 34.1524 49.2072 34.1524 49.1378C34.1524 49.0978 34.1404 49.0632 34.1164 49.0338C34.0924 49.0018 34.0604 48.9738 34.0204 48.9498C33.9804 48.9258 33.935 48.9045 33.8844 48.8858C33.8337 48.8645 33.783 48.8432 33.7324 48.8218C33.6684 48.7978 33.603 48.7698 33.5364 48.7378C33.4697 48.7058 33.4097 48.6672 33.3564 48.6218C33.3057 48.5765 33.263 48.5245 33.2284 48.4658C33.1964 48.4045 33.1804 48.3325 33.1804 48.2498C33.1804 48.0765 33.2444 47.9352 33.3724 47.8258C33.5004 47.7165 33.675 47.6618 33.8964 47.6618C34.0324 47.6618 34.155 47.6858 34.2644 47.7338C34.3737 47.7818 34.4684 47.8365 34.5484 47.8978L34.3364 48.1778C34.267 48.1272 34.1964 48.0872 34.1244 48.0578C34.055 48.0258 33.9817 48.0098 33.9044 48.0098C33.8057 48.0098 33.7324 48.0312 33.6844 48.0738C33.639 48.1138 33.6164 48.1645 33.6164 48.2258C33.6164 48.2658 33.627 48.3005 33.6484 48.3298C33.6724 48.3565 33.703 48.3805 33.7404 48.4018C33.7777 48.4232 33.8204 48.4432 33.8684 48.4618C33.919 48.4805 33.971 48.4992 34.0244 48.5178C34.091 48.5418 34.1577 48.5698 34.2244 48.6018C34.291 48.6312 34.351 48.6685 34.4044 48.7138C34.4604 48.7592 34.5044 48.8152 34.5364 48.8818C34.571 48.9458 34.5884 49.0232 34.5884 49.1138C34.5884 49.1992 34.571 49.2792 34.5364 49.3538C34.5044 49.4258 34.4564 49.4898 34.3924 49.5458C34.3284 49.5992 34.2484 49.6418 34.1524 49.6738C34.0564 49.7058 33.947 49.7218 33.8244 49.7218Z" fill="#787878"/>
<g clip-path="url(#clip0)">
<path d="M26.4179 21.8179L21.8029 23.82L22.3903 26.7662H24.8409C24.9556 26.7662 25.0482 26.868 25.0482 26.9942V35.5455H34.5975V27.052C34.5975 26.9258 34.6901 26.824 34.8048 26.824H37.1835L37.8884 23.9006L33.3148 21.83L31.4296 25.5926L30.0474 24.4053L30.0364 24.4175C29.9576 24.5071 29.8263 24.5102 29.7447 24.4235C29.742 24.422 29.7406 24.419 29.7392 24.4175L29.7268 24.4038L28.317 25.6063L26.4179 21.8179ZM29.847 25.2201C29.9438 25.2201 30.0225 25.3068 30.0225 25.4132C30.0225 25.5196 29.9438 25.6063 29.847 25.6063C29.7503 25.6063 29.6715 25.5196 29.6715 25.4132C29.6715 25.3068 29.7503 25.2201 29.847 25.2201ZM29.847 26.3329C29.9438 26.3329 30.0225 26.4196 30.0225 26.526C30.0225 26.6324 29.9438 26.7191 29.847 26.7191C29.7503 26.7191 29.6715 26.6324 29.6715 26.526C29.6715 26.4196 29.7503 26.3329 29.847 26.3329ZM27.2361 21.0365C28.1138 21.2356 28.9887 21.336 29.8581 21.336C30.7067 21.336 31.554 21.2417 32.3985 21.0502C32.4551 21 32.5339 20.9848 32.6072 21.0167L38.2035 23.5525C38.303 23.592 38.3611 23.709 38.3334 23.8246L37.5442 27.0946C37.5262 27.1995 37.4419 27.28 37.341 27.28H35.0107V35.772C35.0107 35.8981 34.9181 36 34.8034 36H24.8409C24.7261 36 24.6335 35.8981 24.6335 35.772V27.2223H22.2245C22.1291 27.2223 22.0434 27.1493 22.0227 27.0429L21.362 23.7288C21.3413 23.6209 21.3924 23.5099 21.4891 23.4688L27.091 21.038C27.138 21.0182 27.1891 21.0182 27.2361 21.0365ZM27.7904 21.6081L28.2244 22.09L29.8857 23.9127L31.9037 21.6111C31.225 21.7297 30.5422 21.789 29.8581 21.789C29.1711 21.789 28.4814 21.7282 27.7904 21.6081Z" fill="black"/>
</g>
<defs>
<filter id="filter0_d" x="0.145508" y="0" width="60.3468" height="63" filterUnits="userSpaceOnUse" color-interpolation-filters="sRGB">
<feFlood flood-opacity="0" result="BackgroundImageFix"/>
<feColorMatrix in="SourceAlpha" type="matrix" values="0 0 0 0 0 0 0 0 0 0 0 0 0 0 0 0 0 0 127 0"/>
<feOffset dy="2"/>
<feGaussianBlur stdDeviation="4"/>
<feColorMatrix type="matrix" values="0 0 0 0 0 0 0 0 0 0 0 0 0 0 0 0 0 0 0.2 0"/>
<feBlend mode="normal" in2="BackgroundImageFix" result="effect1_dropShadow"/>
<feBlend mode="normal" in="SourceGraphic" in2="effect1_dropShadow" result="shape"/>
</filter>
<clipPath id="clip0">
<rect width="16.9839" height="15" fill="white" transform="translate(21.3545 21)"/>
</clipPath>
</defs>
</svg>
