<svg width="61" height="63" viewBox="0 0 61 63" fill="none" xmlns="http://www.w3.org/2000/svg">
<g filter="url(#filter0_d)">
<rect x="8.44336" y="6" width="44.3468" height="47" rx="5" fill="white"/>
</g>
<path d="M23.2713 14.5842C23.0513 14.5842 22.8463 14.5475 22.6563 14.4742C22.4697 14.4008 22.3063 14.2925 22.1663 14.1492C22.0297 14.0058 21.923 13.8292 21.8463 13.6192C21.7697 13.4092 21.7313 13.1692 21.7313 12.8992C21.7313 12.6325 21.7713 12.3942 21.8513 12.1842C21.9313 11.9708 22.0397 11.7908 22.1763 11.6442C22.3163 11.4975 22.4797 11.3858 22.6663 11.3092C22.8563 11.2325 23.0597 11.1942 23.2763 11.1942C23.5097 11.1942 23.7063 11.2375 23.8663 11.3242C24.0297 11.4075 24.163 11.5025 24.2663 11.6092L23.9563 11.9842C23.873 11.9042 23.7797 11.8375 23.6763 11.7842C23.5763 11.7275 23.4497 11.6992 23.2963 11.6992C23.1497 11.6992 23.0163 11.7275 22.8963 11.7842C22.7797 11.8375 22.678 11.9158 22.5913 12.0192C22.508 12.1192 22.443 12.2425 22.3963 12.3892C22.3497 12.5358 22.3263 12.7008 22.3263 12.8842C22.3263 13.2575 22.4097 13.5508 22.5763 13.7642C22.7463 13.9742 22.9963 14.0792 23.3263 14.0792C23.4197 14.0792 23.508 14.0675 23.5913 14.0442C23.6747 14.0175 23.743 13.9808 23.7963 13.9342V13.2292H23.1763V12.7542H24.3163V14.1942C24.2063 14.3042 24.0597 14.3975 23.8763 14.4742C23.6963 14.5475 23.4947 14.5842 23.2713 14.5842ZM25.041 14.5242V11.2542H25.621V14.0342H26.981V14.5242H25.041ZM28.2207 12.7842L28.1057 13.1842H28.9407L28.8257 12.7842C28.7724 12.6108 28.7207 12.4325 28.6707 12.2492C28.6241 12.0658 28.5774 11.8842 28.5307 11.7042H28.5107C28.4641 11.8875 28.4174 12.0708 28.3707 12.2542C28.3241 12.4342 28.2741 12.6108 28.2207 12.7842ZM27.1257 14.5242L28.1907 11.2542H28.8707L29.9357 14.5242H29.3257L29.0707 13.6392H27.9707L27.7157 14.5242H27.1257ZM31.2938 14.5842C31.0738 14.5842 30.8605 14.5425 30.6538 14.4592C30.4505 14.3758 30.2705 14.2575 30.1138 14.1042L30.4538 13.7092C30.5705 13.8192 30.7038 13.9092 30.8538 13.9792C31.0038 14.0458 31.1538 14.0792 31.3038 14.0792C31.4905 14.0792 31.6322 14.0408 31.7288 13.9642C31.8255 13.8875 31.8738 13.7858 31.8738 13.6592C31.8738 13.5925 31.8605 13.5358 31.8338 13.4892C31.8105 13.4425 31.7755 13.4025 31.7288 13.3692C31.6855 13.3325 31.6322 13.2992 31.5688 13.2692C31.5088 13.2392 31.4422 13.2092 31.3688 13.1792L30.9188 12.9842C30.8388 12.9508 30.7588 12.9092 30.6788 12.8592C30.6022 12.8092 30.5322 12.7492 30.4688 12.6792C30.4055 12.6092 30.3538 12.5275 30.3138 12.4342C30.2772 12.3408 30.2588 12.2342 30.2588 12.1142C30.2588 11.9842 30.2855 11.8642 30.3388 11.7542C30.3955 11.6408 30.4722 11.5425 30.5688 11.4592C30.6655 11.3758 30.7805 11.3108 30.9138 11.2642C31.0505 11.2175 31.1988 11.1942 31.3588 11.1942C31.5488 11.1942 31.7322 11.2325 31.9088 11.3092C32.0855 11.3825 32.2372 11.4825 32.3638 11.6092L32.0688 11.9792C31.9622 11.8925 31.8522 11.8242 31.7388 11.7742C31.6255 11.7242 31.4988 11.6992 31.3588 11.6992C31.2022 11.6992 31.0772 11.7342 30.9838 11.8042C30.8905 11.8708 30.8438 11.9642 30.8438 12.0842C30.8438 12.1475 30.8572 12.2025 30.8838 12.2492C30.9138 12.2925 30.9522 12.3325 30.9988 12.3692C31.0488 12.4025 31.1055 12.4342 31.1688 12.4642C31.2322 12.4908 31.2972 12.5175 31.3638 12.5442L31.8088 12.7292C31.9055 12.7692 31.9938 12.8158 32.0738 12.8692C32.1538 12.9225 32.2222 12.9842 32.2788 13.0542C32.3388 13.1242 32.3855 13.2058 32.4188 13.2992C32.4522 13.3892 32.4688 13.4942 32.4688 13.6142C32.4688 13.7475 32.4422 13.8725 32.3888 13.9892C32.3355 14.1058 32.2572 14.2092 32.1538 14.2992C32.0538 14.3858 31.9305 14.4558 31.7838 14.5092C31.6405 14.5592 31.4772 14.5842 31.2938 14.5842ZM33.9403 14.5842C33.7203 14.5842 33.507 14.5425 33.3003 14.4592C33.097 14.3758 32.917 14.2575 32.7603 14.1042L33.1003 13.7092C33.217 13.8192 33.3503 13.9092 33.5003 13.9792C33.6503 14.0458 33.8003 14.0792 33.9503 14.0792C34.137 14.0792 34.2786 14.0408 34.3753 13.9642C34.472 13.8875 34.5203 13.7858 34.5203 13.6592C34.5203 13.5925 34.507 13.5358 34.4803 13.4892C34.457 13.4425 34.422 13.4025 34.3753 13.3692C34.332 13.3325 34.2786 13.2992 34.2153 13.2692C34.1553 13.2392 34.0886 13.2092 34.0153 13.1792L33.5653 12.9842C33.4853 12.9508 33.4053 12.9092 33.3253 12.8592C33.2486 12.8092 33.1786 12.7492 33.1153 12.6792C33.052 12.6092 33.0003 12.5275 32.9603 12.4342C32.9236 12.3408 32.9053 12.2342 32.9053 12.1142C32.9053 11.9842 32.932 11.8642 32.9853 11.7542C33.042 11.6408 33.1186 11.5425 33.2153 11.4592C33.312 11.3758 33.427 11.3108 33.5603 11.2642C33.697 11.2175 33.8453 11.1942 34.0053 11.1942C34.1953 11.1942 34.3786 11.2325 34.5553 11.3092C34.732 11.3825 34.8836 11.4825 35.0103 11.6092L34.7153 11.9792C34.6086 11.8925 34.4986 11.8242 34.3853 11.7742C34.272 11.7242 34.1453 11.6992 34.0053 11.6992C33.8486 11.6992 33.7236 11.7342 33.6303 11.8042C33.537 11.8708 33.4903 11.9642 33.4903 12.0842C33.4903 12.1475 33.5036 12.2025 33.5303 12.2492C33.5603 12.2925 33.5986 12.3325 33.6453 12.3692C33.6953 12.4025 33.752 12.4342 33.8153 12.4642C33.8786 12.4908 33.9436 12.5175 34.0103 12.5442L34.4553 12.7292C34.552 12.7692 34.6403 12.8158 34.7203 12.8692C34.8003 12.9225 34.8686 12.9842 34.9253 13.0542C34.9853 13.1242 35.032 13.2058 35.0653 13.2992C35.0986 13.3892 35.1153 13.4942 35.1153 13.6142C35.1153 13.7475 35.0886 13.8725 35.0353 13.9892C34.982 14.1058 34.9036 14.2092 34.8003 14.2992C34.7003 14.3858 34.577 14.4558 34.4303 14.5092C34.287 14.5592 34.1236 14.5842 33.9403 14.5842ZM35.7099 14.5242V11.2542H37.6799V11.7442H36.2899V12.5792H37.4649V13.0692H36.2899V14.0342H37.7299V14.5242H35.7099ZM39.3554 14.5842C39.1354 14.5842 38.922 14.5425 38.7154 14.4592C38.512 14.3758 38.332 14.2575 38.1754 14.1042L38.5154 13.7092C38.632 13.8192 38.7654 13.9092 38.9154 13.9792C39.0654 14.0458 39.2154 14.0792 39.3654 14.0792C39.552 14.0792 39.6937 14.0408 39.7904 13.9642C39.887 13.8875 39.9354 13.7858 39.9354 13.6592C39.9354 13.5925 39.922 13.5358 39.8954 13.4892C39.872 13.4425 39.837 13.4025 39.7904 13.3692C39.747 13.3325 39.6937 13.2992 39.6304 13.2692C39.5704 13.2392 39.5037 13.2092 39.4304 13.1792L38.9804 12.9842C38.9004 12.9508 38.8204 12.9092 38.7404 12.8592C38.6637 12.8092 38.5937 12.7492 38.5304 12.6792C38.467 12.6092 38.4154 12.5275 38.3754 12.4342C38.3387 12.3408 38.3204 12.2342 38.3204 12.1142C38.3204 11.9842 38.347 11.8642 38.4004 11.7542C38.457 11.6408 38.5337 11.5425 38.6304 11.4592C38.727 11.3758 38.842 11.3108 38.9754 11.2642C39.112 11.2175 39.2604 11.1942 39.4204 11.1942C39.6104 11.1942 39.7937 11.2325 39.9704 11.3092C40.147 11.3825 40.2987 11.4825 40.4254 11.6092L40.1304 11.9792C40.0237 11.8925 39.9137 11.8242 39.8004 11.7742C39.687 11.7242 39.5604 11.6992 39.4204 11.6992C39.2637 11.6992 39.1387 11.7342 39.0454 11.8042C38.952 11.8708 38.9054 11.9642 38.9054 12.0842C38.9054 12.1475 38.9187 12.2025 38.9454 12.2492C38.9754 12.2925 39.0137 12.3325 39.0604 12.3692C39.1104 12.4025 39.167 12.4342 39.2304 12.4642C39.2937 12.4908 39.3587 12.5175 39.4254 12.5442L39.8704 12.7292C39.967 12.7692 40.0554 12.8158 40.1354 12.8692C40.2154 12.9225 40.2837 12.9842 40.3404 13.0542C40.4004 13.1242 40.447 13.2058 40.4804 13.2992C40.5137 13.3892 40.5304 13.4942 40.5304 13.6142C40.5304 13.7475 40.5037 13.8725 40.4504 13.9892C40.397 14.1058 40.3187 14.2092 40.2154 14.2992C40.1154 14.3858 39.992 14.4558 39.8454 14.5092C39.702 14.5592 39.5387 14.5842 39.3554 14.5842Z" fill="black"/>
<path d="M23.0871 45.6738V44.9218H24.2231V41.5778H23.2871V41.0018C23.5431 40.9538 23.7618 40.8978 23.9431 40.8338C24.1298 40.7645 24.3031 40.6818 24.4631 40.5858H25.1511V44.9218H26.1511V45.6738H23.0871ZM28.6527 45.7698C28.402 45.7698 28.17 45.7352 27.9567 45.6658C27.7487 45.5965 27.5673 45.5005 27.4127 45.3778C27.2633 45.2552 27.1433 45.1085 27.0527 44.9378C26.9673 44.7672 26.9247 44.5778 26.9247 44.3698C26.9247 44.2098 26.9487 44.0658 26.9967 43.9378C27.05 43.8045 27.1193 43.6845 27.2047 43.5778C27.29 43.4712 27.386 43.3752 27.4927 43.2898C27.6047 43.2045 27.722 43.1298 27.8447 43.0658V43.0338C27.6473 42.8952 27.4793 42.7298 27.3407 42.5378C27.2073 42.3458 27.1407 42.1138 27.1407 41.8418C27.1407 41.6338 27.178 41.4472 27.2527 41.2818C27.3327 41.1165 27.4393 40.9752 27.5727 40.8578C27.7113 40.7405 27.874 40.6498 28.0607 40.5858C28.2527 40.5218 28.458 40.4898 28.6767 40.4898C28.906 40.4898 29.1113 40.5245 29.2927 40.5938C29.4793 40.6578 29.6367 40.7512 29.7647 40.8738C29.898 40.9912 29.9993 41.1352 30.0687 41.3058C30.138 41.4712 30.1727 41.6578 30.1727 41.8658C30.1727 41.9938 30.1513 42.1165 30.1087 42.2338C30.0713 42.3458 30.0207 42.4525 29.9567 42.5538C29.8927 42.6498 29.818 42.7405 29.7327 42.8258C29.6527 42.9058 29.5727 42.9752 29.4927 43.0338V43.0658C29.61 43.1298 29.722 43.2045 29.8287 43.2898C29.9353 43.3698 30.0287 43.4632 30.1087 43.5698C30.1887 43.6765 30.2527 43.7965 30.3007 43.9298C30.3487 44.0632 30.3727 44.2152 30.3727 44.3858C30.3727 44.5832 30.33 44.7672 30.2447 44.9378C30.1647 45.1032 30.05 45.2498 29.9007 45.3778C29.7513 45.5005 29.57 45.5965 29.3567 45.6658C29.1433 45.7352 28.9087 45.7698 28.6527 45.7698ZM28.9887 42.8018C29.1273 42.6632 29.2313 42.5218 29.3007 42.3778C29.3753 42.2338 29.4127 42.0818 29.4127 41.9218C29.4127 41.6978 29.346 41.5138 29.2127 41.3698C29.0847 41.2205 28.9007 41.1458 28.6607 41.1458C28.4633 41.1458 28.298 41.2072 28.1647 41.3298C28.0313 41.4472 27.9647 41.6178 27.9647 41.8418C27.9647 41.9698 27.9913 42.0818 28.0447 42.1778C28.098 42.2738 28.17 42.3592 28.2607 42.4338C28.3567 42.5032 28.466 42.5698 28.5887 42.6338C28.7113 42.6925 28.8447 42.7485 28.9887 42.8018ZM28.6687 45.1138C28.914 45.1138 29.114 45.0472 29.2687 44.9138C29.4287 44.7805 29.5087 44.5938 29.5087 44.3538C29.5087 44.2152 29.4767 44.0978 29.4127 44.0018C29.3487 43.9005 29.2607 43.8125 29.1487 43.7378C29.042 43.6578 28.914 43.5858 28.7647 43.5218C28.6153 43.4578 28.4553 43.3912 28.2847 43.3218C28.1247 43.4392 27.9913 43.5778 27.8847 43.7378C27.7833 43.8978 27.7327 44.0765 27.7327 44.2738C27.7327 44.5298 27.8233 44.7352 28.0047 44.8898C28.186 45.0392 28.4073 45.1138 28.6687 45.1138ZM32.6502 43.0658C32.7996 43.0658 32.9542 43.0205 33.1142 42.9298C33.2796 42.8338 33.4289 42.6818 33.5622 42.4738C33.5142 42.0258 33.4022 41.7005 33.2262 41.4978C33.0556 41.2952 32.8476 41.1938 32.6022 41.1938C32.3942 41.1938 32.2156 41.2765 32.0662 41.4418C31.9169 41.6072 31.8422 41.8445 31.8422 42.1538C31.8422 42.4578 31.9116 42.6872 32.0502 42.8418C32.1942 42.9912 32.3942 43.0658 32.6502 43.0658ZM32.4342 45.7698C32.1302 45.7698 31.8662 45.7138 31.6422 45.6018C31.4182 45.4898 31.2289 45.3538 31.0742 45.1938L31.5702 44.6338C31.6662 44.7458 31.7862 44.8392 31.9302 44.9138C32.0796 44.9832 32.2316 45.0178 32.3862 45.0178C32.5462 45.0178 32.6956 44.9858 32.8342 44.9218C32.9782 44.8578 33.1036 44.7538 33.2102 44.6098C33.3169 44.4605 33.4022 44.2658 33.4662 44.0258C33.5356 43.7858 33.5756 43.4898 33.5862 43.1378C33.4369 43.3245 33.2609 43.4712 33.0582 43.5778C32.8556 43.6792 32.6609 43.7298 32.4742 43.7298C32.2556 43.7298 32.0556 43.6978 31.8742 43.6338C31.6929 43.5698 31.5356 43.4738 31.4022 43.3458C31.2742 43.2125 31.1729 43.0472 31.0982 42.8498C31.0289 42.6525 30.9942 42.4205 30.9942 42.1538C30.9942 41.8978 31.0369 41.6685 31.1222 41.4658C31.2076 41.2578 31.3222 41.0818 31.4662 40.9378C31.6102 40.7938 31.7782 40.6845 31.9702 40.6098C32.1676 40.5298 32.3756 40.4898 32.5942 40.4898C32.8396 40.4898 33.0742 40.5405 33.2982 40.6418C33.5222 40.7378 33.7169 40.8872 33.8822 41.0898C34.0529 41.2925 34.1862 41.5512 34.2822 41.8658C34.3836 42.1752 34.4342 42.5432 34.4342 42.9698C34.4342 43.4658 34.3782 43.8898 34.2662 44.2418C34.1596 44.5938 34.0129 44.8845 33.8262 45.1138C33.6449 45.3378 33.4316 45.5032 33.1862 45.6098C32.9462 45.7165 32.6956 45.7698 32.4342 45.7698ZM36.8478 45.7698C36.3145 45.7698 35.8931 45.5432 35.5838 45.0898C35.2745 44.6312 35.1198 43.9698 35.1198 43.1058C35.1198 42.2418 35.2745 41.5912 35.5838 41.1538C35.8931 40.7112 36.3145 40.4898 36.8478 40.4898C37.3811 40.4898 37.8025 40.7112 38.1118 41.1538C38.4211 41.5965 38.5758 42.2472 38.5758 43.1058C38.5758 43.9698 38.4211 44.6312 38.1118 45.0898C37.8025 45.5432 37.3811 45.7698 36.8478 45.7698ZM36.8478 45.0498C36.9705 45.0498 37.0825 45.0178 37.1838 44.9538C37.2905 44.8845 37.3811 44.7725 37.4558 44.6178C37.5305 44.4632 37.5891 44.2632 37.6318 44.0178C37.6745 43.7725 37.6958 43.4685 37.6958 43.1058C37.6958 42.7485 37.6745 42.4498 37.6318 42.2098C37.5891 41.9645 37.5305 41.7672 37.4558 41.6178C37.3811 41.4685 37.2905 41.3645 37.1838 41.3058C37.0825 41.2418 36.9705 41.2098 36.8478 41.2098C36.7251 41.2098 36.6105 41.2418 36.5038 41.3058C36.4025 41.3645 36.3145 41.4685 36.2398 41.6178C36.1651 41.7672 36.1065 41.9645 36.0638 42.2098C36.0211 42.4498 35.9998 42.7485 35.9998 43.1058C35.9998 43.4685 36.0211 43.7725 36.0638 44.0178C36.1065 44.2632 36.1651 44.4632 36.2398 44.6178C36.3145 44.7725 36.4025 44.8845 36.5038 44.9538C36.6105 45.0178 36.7251 45.0498 36.8478 45.0498Z" fill="black"/>
<path d="M26.8756 49.7218C26.7609 49.7218 26.6636 49.7045 26.5836 49.6698C26.5063 49.6352 26.4423 49.5872 26.3916 49.5258C26.3436 49.4618 26.3076 49.3872 26.2836 49.3018C26.2623 49.2138 26.2516 49.1165 26.2516 49.0098V48.0738H25.9716V47.7298L26.2756 47.7098L26.3316 47.1738H26.7156V47.7098H27.2156V48.0738H26.7156V49.0098C26.7156 49.2392 26.8076 49.3538 26.9916 49.3538C27.0263 49.3538 27.0609 49.3498 27.0956 49.3418C27.1329 49.3338 27.1663 49.3232 27.1956 49.3098L27.2756 49.6498C27.2223 49.6685 27.1609 49.6845 27.0916 49.6978C27.0249 49.7138 26.9529 49.7218 26.8756 49.7218ZM27.6289 49.6738V47.7098H28.0889V49.6738H27.6289ZM27.8609 47.3658C27.7782 47.3658 27.7102 47.3418 27.6569 47.2938C27.6036 47.2458 27.5769 47.1832 27.5769 47.1058C27.5769 47.0285 27.6036 46.9658 27.6569 46.9178C27.7102 46.8672 27.7782 46.8418 27.8609 46.8418C27.9436 46.8418 28.0116 46.8672 28.0649 46.9178C28.1182 46.9658 28.1449 47.0285 28.1449 47.1058C28.1449 47.1832 28.1182 47.2458 28.0649 47.2938C28.0116 47.3418 27.9436 47.3658 27.8609 47.3658ZM28.6758 49.6738V47.7098H29.0558L29.0878 47.9778H29.1038C29.1865 47.8898 29.2758 47.8152 29.3718 47.7538C29.4705 47.6925 29.5811 47.6618 29.7038 47.6618C29.8478 47.6618 29.9625 47.6925 30.0478 47.7538C30.1358 47.8152 30.2025 47.9018 30.2478 48.0138C30.3411 47.9125 30.4385 47.8285 30.5398 47.7618C30.6411 47.6952 30.7545 47.6618 30.8798 47.6618C31.0878 47.6618 31.2411 47.7298 31.3398 47.8658C31.4385 47.9992 31.4878 48.1912 31.4878 48.4418V49.6738H31.0238V48.5018C31.0238 48.3392 30.9985 48.2245 30.9478 48.1578C30.8998 48.0912 30.8251 48.0578 30.7238 48.0578C30.6011 48.0578 30.4638 48.1392 30.3118 48.3018V49.6738H29.8518V48.5018C29.8518 48.3392 29.8265 48.2245 29.7758 48.1578C29.7278 48.0912 29.6518 48.0578 29.5478 48.0578C29.4251 48.0578 29.2878 48.1392 29.1358 48.3018V49.6738H28.6758ZM32.8869 49.7218C32.7509 49.7218 32.6242 49.6992 32.5069 49.6538C32.3895 49.6058 32.2869 49.5378 32.1989 49.4498C32.1109 49.3618 32.0415 49.2552 31.9909 49.1298C31.9429 49.0018 31.9189 48.8565 31.9189 48.6938C31.9189 48.5338 31.9442 48.3898 31.9949 48.2618C32.0455 48.1338 32.1122 48.0258 32.1949 47.9378C32.2802 47.8498 32.3775 47.7818 32.4869 47.7338C32.5962 47.6858 32.7082 47.6618 32.8229 47.6618C32.9562 47.6618 33.0735 47.6845 33.1749 47.7298C33.2762 47.7752 33.3602 47.8392 33.4269 47.9218C33.4962 48.0045 33.5482 48.1032 33.5829 48.2178C33.6175 48.3325 33.6349 48.4578 33.6349 48.5938C33.6349 48.6392 33.6322 48.6818 33.6269 48.7218C33.6242 48.7618 33.6202 48.7938 33.6149 48.8178H32.3669C32.3882 48.9938 32.4495 49.1298 32.5509 49.2258C32.6549 49.3192 32.7869 49.3658 32.9469 49.3658C33.0322 49.3658 33.1109 49.3538 33.1829 49.3298C33.2575 49.3032 33.3309 49.2672 33.4029 49.2218L33.5589 49.5098C33.4655 49.5712 33.3615 49.6218 33.2469 49.6618C33.1322 49.7018 33.0122 49.7218 32.8869 49.7218ZM32.3629 48.5058H33.2349C33.2349 48.3538 33.2015 48.2352 33.1349 48.1498C33.0709 48.0618 32.9709 48.0178 32.8349 48.0178C32.7175 48.0178 32.6149 48.0592 32.5269 48.1418C32.4389 48.2245 32.3842 48.3458 32.3629 48.5058ZM34.6222 49.7218C34.4862 49.7218 34.3516 49.6965 34.2182 49.6458C34.0876 49.5925 33.9742 49.5272 33.8782 49.4498L34.0942 49.1538C34.1822 49.2232 34.2689 49.2778 34.3542 49.3178C34.4422 49.3552 34.5369 49.3738 34.6382 49.3738C34.7449 49.3738 34.8236 49.3525 34.8742 49.3098C34.9249 49.2645 34.9502 49.2072 34.9502 49.1378C34.9502 49.0978 34.9382 49.0632 34.9142 49.0338C34.8902 49.0018 34.8582 48.9738 34.8182 48.9498C34.7782 48.9258 34.7329 48.9045 34.6822 48.8858C34.6316 48.8645 34.5809 48.8432 34.5302 48.8218C34.4662 48.7978 34.4009 48.7698 34.3342 48.7378C34.2676 48.7058 34.2076 48.6672 34.1542 48.6218C34.1036 48.5765 34.0609 48.5245 34.0262 48.4658C33.9942 48.4045 33.9782 48.3325 33.9782 48.2498C33.9782 48.0765 34.0422 47.9352 34.1702 47.8258C34.2982 47.7165 34.4729 47.6618 34.6942 47.6618C34.8302 47.6618 34.9529 47.6858 35.0622 47.7338C35.1716 47.7818 35.2662 47.8365 35.3462 47.8978L35.1342 48.1778C35.0649 48.1272 34.9942 48.0872 34.9222 48.0578C34.8529 48.0258 34.7796 48.0098 34.7022 48.0098C34.6036 48.0098 34.5302 48.0312 34.4822 48.0738C34.4369 48.1138 34.4142 48.1645 34.4142 48.2258C34.4142 48.2658 34.4249 48.3005 34.4462 48.3298C34.4702 48.3565 34.5009 48.3805 34.5382 48.4018C34.5756 48.4232 34.6182 48.4432 34.6662 48.4618C34.7169 48.4805 34.7689 48.4992 34.8222 48.5178C34.8889 48.5418 34.9556 48.5698 35.0222 48.6018C35.0889 48.6312 35.1489 48.6685 35.2022 48.7138C35.2582 48.7592 35.3022 48.8152 35.3342 48.8818C35.3689 48.9458 35.3862 49.0232 35.3862 49.1138C35.3862 49.1992 35.3689 49.2792 35.3342 49.3538C35.3022 49.4258 35.2542 49.4898 35.1902 49.5458C35.1262 49.5992 35.0462 49.6418 34.9502 49.6738C34.8542 49.7058 34.7449 49.7218 34.6222 49.7218Z" fill="#787878"/>
<g clip-path="url(#clip0)">
<path d="M26.374 20.8289H35.096C35.267 20.8289 35.4217 20.9037 35.5338 21.0247C35.6458 21.1458 35.7151 21.313 35.7151 21.4976V33.967C35.7151 34.5709 35.4864 35.1186 35.1191 35.5166C34.7518 35.9134 34.2436 36.1604 33.6845 36.1604H27.8282C27.2576 36.1604 26.739 35.9084 26.3636 35.5029C25.9882 35.0974 25.7549 34.5372 25.7549 33.9208V21.4976C25.7549 21.3155 25.8242 21.1483 25.9362 21.026L25.9374 21.0247L25.9385 21.0235C26.0506 20.9037 26.2054 20.8289 26.374 20.8289ZM35.0752 21.5201H26.3948V27.5227C28.1286 28.1178 29.7018 27.5813 31.1006 27.1035C32.5837 26.5969 33.8866 26.1527 35.0764 27.0074V21.5201H35.0752ZM26.3948 28.2426V33.9208C26.3948 34.3463 26.5565 34.7331 26.8164 35.0138C27.0763 35.2945 27.4344 35.4692 27.8282 35.4692H33.6856C34.068 35.4692 34.4157 35.3008 34.6675 35.0275C34.9193 34.7555 35.0764 34.38 35.0764 33.967V27.8908C34.0345 26.8277 32.7639 27.2607 31.2935 27.7635C29.8519 28.2551 28.2383 28.8053 26.3948 28.2426Z" fill="black"/>
</g>
<defs>
<filter id="filter0_d" x="0.443359" y="0" width="60.3468" height="63" filterUnits="userSpaceOnUse" color-interpolation-filters="sRGB">
<feFlood flood-opacity="0" result="BackgroundImageFix"/>
<feColorMatrix in="SourceAlpha" type="matrix" values="0 0 0 0 0 0 0 0 0 0 0 0 0 0 0 0 0 0 127 0"/>
<feOffset dy="2"/>
<feGaussianBlur stdDeviation="4"/>
<feColorMatrix type="matrix" values="0 0 0 0 0 0 0 0 0 0 0 0 0 0 0 0 0 0 0.2 0"/>
<feBlend mode="normal" in2="BackgroundImageFix" result="effect1_dropShadow"/>
<feBlend mode="normal" in="SourceGraphic" in2="effect1_dropShadow" result="shape"/>
</filter>
<clipPath id="clip0">
<rect width="9.96024" height="15.3315" fill="white" transform="translate(25.7549 20.8289)"/>
</clipPath>
</defs>
</svg>
