<svg width="375" height="262" viewBox="0 0 375 262" fill="none" xmlns="http://www.w3.org/2000/svg">
<rect y="68.1584" width="374.87" height="11.3597" fill="white"/>
<g clip-path="url(#clip0)">
<path fill-rule="evenodd" clip-rule="evenodd" d="M301.195 110.203L287.258 169.299L273.129 151.532C242.691 161.725 225.6 178.535 223.067 204.409C198.06 167.944 213.255 135.253 244.936 116.104L230.506 97.9773L301.195 110.203ZM283.212 249.047L297.149 189.951L311.277 207.718C341.716 197.525 358.791 180.715 361.339 154.841C386.347 191.306 371.151 223.997 339.47 243.147L353.885 261.273L283.212 249.047Z" fill="white"/>
</g>
<path fill-rule="evenodd" clip-rule="evenodd" d="M31 9H343.87C356.02 9 365.87 18.8498 365.87 31V102.643H374.87V31C374.87 13.8792 360.99 0 343.87 0H31C13.8792 0 0 13.8792 0 31V218.913C0 236.034 13.8792 249.913 31 249.913H191.897V240.913H31C18.8498 240.913 9 231.063 9 218.913V31C9 18.8497 18.8497 9 31 9Z" fill="white"/>
<defs>
<clipPath id="clip0">
<rect width="163.295" height="163.295" fill="white" transform="translate(210.559 97.9773)"/>
</clipPath>
</defs>
</svg>
